<?xml version="1.0" encoding="UTF-8" standalone="no"?>
<svg
   width="600"
   height="530"
   version="1.1"
   id="svg51"
   sodipodi:docname="bluesky-logo2.svg"
   inkscape:version="1.1.2 (0a00cf5339, 2022-02-04)"
   xmlns:inkscape="http://www.inkscape.org/namespaces/inkscape"
   xmlns:sodipodi="http://sodipodi.sourceforge.net/DTD/sodipodi-0.dtd"
   xmlns="http://www.w3.org/2000/svg"
   xmlns:svg="http://www.w3.org/2000/svg">
  <defs
     id="defs55" />
  <sodipodi:namedview
     id="namedview53"
     pagecolor="#ffffff"
     bordercolor="#666666"
     borderopacity="1.0"
     inkscape:pageshadow="2"
     inkscape:pageopacity="0.0"
     inkscape:pagecheckerboard="true"
     showgrid="false"
     inkscape:zoom="1.4150943"
     inkscape:cx="300.33333"
     inkscape:cy="265"
     inkscape:window-width="1920"
     inkscape:window-height="1007"
     inkscape:window-x="0"
     inkscape:window-y="0"
     inkscape:window-maximized="1"
     inkscape:current-layer="svg51" />
  <path
     d="m135.72 44.03c66.496 49.921 138.02 151.14 164.28 205.46 26.262-54.316 97.782-155.54 164.28-205.46 47.98-36.021 125.72-63.892 125.72 24.795 0 17.712-10.155 148.79-16.111 170.07-20.703 73.984-96.144 92.854-163.25 81.433 117.3 19.964 147.14 86.092 82.697 152.22-122.39 125.59-175.91-31.511-189.63-71.766-2.514-7.3797-3.6904-10.832-3.7077-7.8964-0.0174-2.9357-1.1937 0.51669-3.7077 7.8964-13.714 40.255-67.233 197.36-189.63 71.766-64.444-66.128-34.605-132.26 82.697-152.22-67.108 11.421-142.55-7.4491-163.25-81.433-5.9562-21.282-16.111-152.36-16.111-170.07 0-88.687 77.742-60.816 125.72-24.795z"
     fill="#1185fe"
     id="path49" />
  <path
     style="fill:#ffffff;stroke-width:0.706667;stroke:#000000;stroke-opacity:1"
     d="m 178.78667,518.36472 c -8.13639,-1.74625 -11.67854,-3.00664 -21.19156,-7.5405 -13.78871,-6.57163 -26.96588,-16.06975 -42.43017,-30.58369 -21.935495,-20.58746 -34.753707,-39.94461 -39.686547,-59.93179 -2.090128,-8.4689 -2.070611,-20.83074 0.04536,-28.72931 8.123469,-30.32359 40.277577,-53.5546 91.567637,-66.15668 6.23807,-1.53271 13.65294,-3.16185 16.47748,-3.62033 8.65673,-1.40512 5.07212,-1.55792 -5.62592,-0.2398 -12.01384,1.48023 -34.91039,1.66995 -45.44294,0.37654 C 86.340307,316.27067 52.735839,295.09589 35.097423,260.56406 26.287123,243.31559 23.99955,232.32708 19.102907,183.73333 12.655491,119.74988 9.4662508,67.120978 11.235454,53.904466 14.463458,29.790245 25.012791,15.449992 42.569411,11.310602 52.547176,8.958107 67.054662,10.39467 81.266667,15.142489 112.0518,25.426909 141.22304,45.474496 175.9544,80.215507 c 43.00687,43.018803 92.1667,109.168823 118.46579,159.408903 2.93155,5.60024 5.45773,10.18226 5.61373,10.18226 0.156,0 1.59626,-2.6235 3.20058,-5.83 16.55906,-33.09611 50.62713,-83.17902 83.28097,-122.43 40.14878,-48.260142 76.8488,-80.486164 110.97786,-97.448838 19.08296,-9.484529 34.4798,-13.862535 48.6759,-13.84072 12.57917,0.01933 22.35784,3.800714 29.34492,11.347596 6.8529,7.40194 10.6632,16.11039 12.83962,29.344944 2.23652,13.599994 0.37032,48.941625 -6.45184,122.183678 -3.98755,42.81003 -6.67114,61.16741 -10.58871,72.43334 -15.06,43.30864 -51.23426,69.91079 -103.85322,76.37249 -10.53255,1.29341 -33.42911,1.10369 -45.44294,-0.37654 -5.56029,-0.68509 -10.26548,-1.08975 -10.45598,-0.89925 -0.19051,0.1905 1.17882,0.56209 3.04294,0.82575 6.83622,0.96694 25.56229,5.59071 35.18931,8.68881 25.21398,8.11421 42.93298,18.01664 56.57329,31.61651 17.69895,17.64648 23.44376,37.22393 17.63845,60.10914 -4.57274,18.02627 -14.93811,34.11925 -34.58615,53.6975 -25.08179,24.99267 -47.75055,38.92521 -70.21732,43.15652 -8.17655,1.53995 -21.72746,1.04089 -28.76827,-1.0595 -5.89412,-1.75831 -15.21681,-6.13335 -20.3987,-9.5729 -24.15472,-16.03298 -45.86388,-50.16246 -62.95002,-98.9652 -5.9137,-16.89115 -6.08662,-17.31333 -7.09136,-17.31333 -0.51614,0 -1.73819,2.27951 -2.74662,5.12333 -10.32649,29.1212 -14.16723,38.61602 -21.61792,53.4424 -20.01764,39.83378 -43.575,62.72961 -70.20063,68.22929 -7.17314,1.48165 -19.02134,1.35847 -26.64141,-0.27697 z"
     id="path211" />
</svg>
