<?xml version="1.0" encoding="utf-8"?>
<!-- Generator: Adobe Illustrator 26.3.1, SVG Export Plug-In . SVG Version: 6.00 Build 0)  -->
<svg version="1.1" id="Layer_1" xmlns="http://www.w3.org/2000/svg" xmlns:xlink="http://www.w3.org/1999/xlink" x="0px" y="0px"
	 viewBox="0 0 566.9 467.7" style="enable-background:new 0 0 566.9 467.7;" xml:space="preserve">
<style type="text/css">
	.st0{fill:#E2231A;}
	.st1{fill:#FFFFFF;}
</style>
<g id="Layer_2_1_">
</g>
<g id="Layer_1_1_">
	<rect x="56.7" y="56.7" class="st0" width="453.5" height="354.3"/>
	<g>
		<g>
			<path class="st1" d="M441.3,215.1c5.1-1.7,9.9-4.4,9.9-9c0-2.4-1.1-3.4-3.5-3.4c-2.8,0-5.8,2.2-7.5,3.9
				c-2.8,2.8-5.8,6.3-8.1,10.6C433.8,217.2,437.8,216.2,441.3,215.1 M446.3,230.7c-3.5,4.6-9,8.9-16,8.9c-5.3,0-8.4-3.8-8.4-8.6
				c0-15,16.5-30.8,27.6-30.8c3.8,0,6.5,1.4,6.5,5.4c0,5.9-5.2,9-14.3,11.8c-2.7,0.8-8.3,2-11,2.6c-1.2,2-2.9,6-2.9,9.2
				c0,4.3,2.2,6.8,6,6.8c4.5,0,8.8-3.5,11.2-6.3C445.8,228.9,446.9,229.9,446.3,230.7 M450.6,128.1c0.4,0,0.9-0.3,0.8-0.8l-1.6-11.2
				c-0.2-0.8-0.5-1-0.9-1c-0.3,0-0.6,0.2-0.8,0.7c-0.5,1-1.3,1.8-2.7,1.8c-2.5,0-4.9-1.8-10.8-1.8c-7.8,0-18.1,3.3-18.1,14.6
				c0,11.3,9,15,16.8,17.8c8.2,3,14.7,5.3,14.7,13.8c0,9.5-6.7,12.6-13,12.6c-7,0-15.3-3.3-18.2-14.5c-0.3-0.9-0.6-1.2-1.2-1.2
				c-0.6,0-1.1,0.4-1.1,1.4v14.3c0,0.8,0.5,1.3,1,1.3c0.3,0,0.8-0.2,1-0.7c0.6-0.8,1.3-1.6,2.8-1.6c3.2,0,6.9,3.8,16,3.8
				c8,0,21.6-2.5,21.6-18.3c0-6.3-2.6-14.3-17.8-18.6c-10.8-3-14.2-7.5-14.2-13c0-4.8,2.8-9.4,10.6-9.4c3.8,0,10.1,1.1,14.3,9.3
				C450,128,450.3,128.1,450.6,128.1 M404.4,125.3c-2.2,0-4.7-1.3-4.7-4.9c0-3.8,3-4.9,5.3-4.9c3.2,0,5.8,2.3,5.8,6.2
				c0,4.3-3.3,9.5-9,9.5c-0.6,0-0.8-0.4-0.8-0.8s0.3-0.7,0.6-0.8c3.9-0.8,5.4-3.3,5.5-4.9C406.7,125,405.5,125.3,404.4,125.3
				 M414.4,205.2c0,2.4-0.9,5.7-3,9.2c-3.9,6.4-7,7.6-9.7,7.6c-2.3,0-3.3-1.8-3.3-4.5c0-2.3,1-5.4,2.8-8.1c2.7-4.3,6.4-7.8,9.8-7.8
				C413.3,201.6,414.4,202.7,414.4,205.2 M396.1,254.9c-9.3,0-12-5.4-12-8c0-2.5,1-4.1,3.5-5.9c1.8-1.2,4.3-2.5,6.4-3.3
				c2.3,1,5.7,3,6.8,4c5,3.5,6,5.5,6,7.3C406.7,253.8,399.6,254.9,396.1,254.9 M425.3,203.7c1,0,1.9-0.5,1.9-2.3c0-1.5-1.4-2-2.8-2
				c-1.5,0-3.4,0.4-5.4,1.8c-0.5,0.4-1.8,1-2.5,0.5c-1.6-1.1-3-1.8-6.8-1.8s-9.3,2.3-12.8,7c-2.5,3.5-3,6-3,8.5c0,2.5,1,4.3,1.8,5.3
				c0.2,0.3,0.2,0.4,0.2,0.7c0,0.6-0.7,1-2,1.3c-2.3,0.8-6,2.9-6,6.8c0,2.5,2,4.9,4.3,6.4c0,0-4.6,1.3-8.3,3.3c-2.8,1.6-6,4-6,7.5
				c0,4,3.4,10.5,17.6,10.5c8.3,0,13.5-3,15.5-5.3c1.5-1.8,1.8-3.8,1.8-5c0-4.5-5-8.8-10.5-11.8c-3.5-2-8.7-4.4-8.7-8
				c0-0.9,0.2-1.9,1.3-2.5c0.7-0.5,1.8-0.8,2.9-0.8c1.6,0,3.6,0.5,5,0.5c4.5,0,10.6-1.5,14.4-9.5c1-2.3,1.4-4.5,1.4-6.4
				c0-2.5-0.4-3.1-0.4-4.3c0-1,1-1.6,2.9-1.6C423.7,202.6,423.7,203.7,425.3,203.7 M373.6,215.1c5.2-1.7,9.9-4.4,9.9-9
				c0-2.4-1.2-3.4-3.5-3.4c-2.9,0-5.8,2.2-7.5,3.9c-2.9,2.8-5.8,6.3-8.2,10.6C366.3,217.2,370.1,216.2,373.6,215.1 M378.7,230.7
				c-3.5,4.6-9,8.9-15.9,8.9c-5.3,0-8.4-3.8-8.4-8.6c0-15,16.5-30.8,27.6-30.8c3.8,0,6.5,1.4,6.5,5.4c0,5.9-5.1,9-14.3,11.8
				c-2.6,0.8-8.3,2-11,2.6c-1.2,2-2.8,6-2.8,9.2c0,4.3,2.1,6.8,6,6.8c4.5,0,8.8-3.5,11.1-6.3C378.2,228.9,379.3,229.9,378.7,230.7
				 M354.3,188.9c0,0.2-0.1,0.8-0.3,1.3c-6.8,14.7-13.5,29.3-20,44c-0.3,0.8-1,2.3-1,3.3c0,1.3,0.9,2.3,2.3,2.3
				c0.7,0,1.6-0.2,2.1-0.5c3.7-1.5,7.5-5.5,9.8-8.9c0.5-0.8-0.4-1.4-1-0.9c-0.9,0.8-3.5,4.3-6.3,5.9c-0.5,0.2-1,0.2-0.7-0.8
				l20.9-46.4c0.3-0.8,0.5-1.3,0.5-1.8c0-0.6-0.4-0.8-1-0.8c-1,0-2.2,0.3-3.7,0.4c-1.2,0.1-3.4,0.3-5.3,0.4c-0.5,0-0.8,0.5-0.8,0.8
				c0,0.5,0.4,0.7,0.9,0.7c1,0,2,0,3.1,0.3C354.2,188.3,354.3,188.6,354.3,188.9 M390.9,156.9c0-5.1,3.8-5.6,7-5.9
				c1.3-0.2,1.5-2.2-0.3-2.2h-25.3c-1.8,0-1.8,2.3,0,2.4c5,0.3,9,1.3,9,6.1v9.1c0,2-1,3.4-2.1,4.3c-4.4,3.7-10,3.9-13.3,3.9
				c-16,0-23.2-13.9-23.2-27.7c0-11.2,5.7-28.8,24.2-28.8c16.6,0,22.6,10.8,24.7,14.9c0.7,1.3,2.3,1,2.3,0v-13.3
				c0-1.3-1.8-1.5-2.3,0c-0.3,1.5-1.3,2.5-2.6,2.5c-1,0-2.2-0.8-2.7-1.1c-5-3.2-9.8-5.7-19.3-5.7c-15.4,0-34.4,7.7-34.4,31.1
				c0,23.6,17.8,30.8,33.4,30.8c15.3,0,23.3-7.8,24.8-8.8L390.9,156.9L390.9,156.9z M335.6,188.9c0,0.2-0.1,0.8-0.3,1.3
				c-6.8,14.7-13.5,29.3-20,44c-0.3,0.8-1,2.3-1,3.3c0,1.3,0.9,2.3,2.3,2.3c0.7,0,1.6-0.2,2.1-0.5c3.7-1.5,7.5-5.5,9.8-8.9
				c0.5-0.8-0.4-1.4-1-0.9c-0.9,0.8-3.5,4.3-6.3,5.9c-0.5,0.2-1,0.2-0.7-0.8l20.9-46.4c0.3-0.8,0.5-1.3,0.5-1.8c0-0.6-0.4-0.8-1-0.8
				c-1,0-2.2,0.3-3.7,0.4c-1.3,0.1-3.4,0.3-5.4,0.4c-0.5,0-0.8,0.5-0.8,0.8c0,0.5,0.4,0.7,0.9,0.7c1,0,2,0,3.1,0.3
				C335.5,188.3,335.6,188.6,335.6,188.9 M305.9,201.4c-7.9,0-19.3,18.8-19.3,30.3c0,3,1.3,5.3,4.5,5.3c7.8,0,19.4-19.2,19.4-29.3
				C310.5,204.6,309.6,201.4,305.9,201.4 M304.2,199.1c8,0,9.5,7,9.5,13.5c0,10.4-9.5,26.9-21,26.9c-7.3,0-10-5.9-10-11.9
				C282.6,213.2,292.9,199.1,304.2,199.1 M263.9,115.8c-1.8,0-1.8,1.8-0.8,2c1.9,0.4,5.9,0.8,5.9,6c0.1,12.5,0.1,28.8-0.4,42
				c-0.1,4.8-1.5,8.8-5.6,9.3c-1.5,0.1-1.5,1.8-0.5,1.8h18.1c1,0,1.3-1.6,0.1-1.8c-2.8-0.5-7.3-0.5-7.6-9.3
				c-0.4-8.5-0.7-40.8-0.7-40.8l45.3,50.4h3.8c0,0,0-47.1,0.3-50.7c0.2-4.2,1.7-6.4,6.2-6.8c2.3-0.2,1.8-2.2,0.3-2.2h-18.4
				c-2.2,0-1.7,2-0.7,2c2,0.3,8.3,1,8.5,7c0.2,8.8,0.7,36.1,0.7,36.1l-40.3-45.1h-14.2L263.9,115.8L263.9,115.8z M280.1,204.1
				c0.5,0,0.8-0.3,1-0.8l4-12.8c0.2-0.8-0.1-1.3-0.8-1.3c-0.3,0-0.6,0.1-0.8,0.3c-0.8,0.8-1.7,1.5-2.4,1.5c-0.4,0-0.8-0.3-1.2-0.6
				c-3.6-4.4-9.4-5.1-12.1-5.1c-12.8,0-23.8,8.4-30.3,18.6c-3.9,6.1-5.9,12.8-5.9,19.4c0,10.5,7.3,16.5,16.8,16.5
				c4.3,0,7.5-0.5,13.3-2.9c1.3-0.5,2.7-1.1,3.5-1.1c1.4,0,1.5,2.1,1.7,4c0,0.8,0.5,1,1,1c0.3,0,0.8-0.2,1-0.7l5.4-15.3
				c0.4-1.3-0.1-1.8-0.6-1.8c-0.8,0-1.2,0.3-1.8,1.3c-2.4,3.8-4.1,6.2-12.5,10.3c-3.5,1.7-7.6,2.7-10.9,2.7c-7.1,0-9.9-5.4-9.9-12.3
				c0-9,4.3-18.5,10.8-26.3c4.2-5.2,10.5-11,18-11c7.1,0,12.4,5.3,11.6,15C278.9,203.7,279.5,204.1,280.1,204.1 M247.8,167.3v-42.5
				c0-5.3,3.8-6.8,7.8-7c1.5,0,1.8-2-0.2-2h-25.1c-1.8,0-2,1.9-0.3,2c3.8,0.4,8.3,2.3,8.3,7v42.5c0,4.8-1.8,7.8-7.3,7.8
				c-2.2,0-1.7,1.8,0,1.8h24.6c1.3,0,1.6-1.8-0.5-1.8C249.8,175.1,247.8,171.6,247.8,167.3 M188.4,125c0-1.9-0.8-3.8-3.3-4.7
				c-2.1-0.8-4-1-6.1-1.3c-3-0.5-2.4-3.4,0.3-3.4c1.8,0,10.1,0.7,20.1,0.7c5.8,0,14-0.3,18.1-0.5c2.5-0.2,2.8,2.5,1,3
				s-10,2.5-24.8,16.1c-15.3,14-35,34.9-35,34.9s44.3,52.8,52.1,59.1c8,6.5,13.5,7,19.6,7.5c1.5,0.1,2,3,0,3h-34.6
				c0,0-42.9-51.8-49.9-56.6c-1.2-0.8-4.3-1.8-4.5,1.8c-0.3,3.3-0.5,30.8,0.2,36.8c0.8,6,3.3,14.8,17.6,14.8c1.8,0,2.8,3.3,0.3,3.3
				c-8.4-0.4-14.8-0.4-25.2-0.4c-9,0-21.6,0.4-23.4,0.4c-3,0-3-2.8-0.3-3c4-0.3,13.5-0.8,14.1-16c0.7-15.8,0.3-82.3,0-89.6
				c-0.1-5-4.3-11.8-15.4-11.8c-1.8,0-1.5-3,0.5-3h47.1c1.8,0,2.8,2.9-0.2,3.2c-3,0.3-14.5,0.6-14.8,15.9c-0.4,15.3-0.4,39-0.4,40
				c0,1.3,0.5,2.5,2.3,1.3c5.4-3.7,21.6-19.5,33.6-33c4.8-5.3,8-10,10.3-14.4C187.9,127.8,188.4,126.5,188.4,125"/>
			<path class="st1" d="M401,259.8c-1,0-1.3,1.8,0.1,1.8c1.5,0,4.7,0.4,4.7,5l-0.3,37.1c0,4-1.4,7.4-5.2,7.4c-1.2,0-1.2,1.7-0.2,1.7
				h15.5c1,0,1-1.7-0.2-1.7c-2.3,0-6.2-1-6.3-7.4l-0.3-37.8c0,0,39.6,46.6,39.9,46.8h2.7l0.3-44.6c0-4.4,1.9-6.8,6.7-6.8
				c1,0,1-1.5,0-1.5h-17.3c-1,0-1,1.5,0,1.5c1.8,0,7.1,0.3,7.2,6.1l0.4,32.5l-34-40.1H401L401,259.8z M353.2,285.8
				c0-13.5,6.3-24,17.8-24c10.3,0,18.1,9.9,18.1,24c0,17.3-7,24.9-18.1,24.9C360.2,310.7,353.2,300.4,353.2,285.8 M371,313.2
				c15.5,0,26.6-10.8,26.6-27.3c0-14.5-10.8-26.3-26.6-26.3c-15.4,0-26.4,12-26.4,26.3C344.6,301.4,355,313.2,371,313.2
				 M296.8,266.9c0-4.8,2.8-5,9.3-5c11.3,0,22.6,5.6,22.6,23.5c0,17.4-9.5,24.8-22.1,24.8h-2.7c-3.3,0-7.1-0.7-7.1-7.3L296.8,266.9
				L296.8,266.9z M283.8,259.5c-1.8,0-1.4,2-0.4,2c2,0,5.3,1,5.3,5v37.7c0,4-0.9,6.5-5.7,6.5c-1.2,0-1.2,1.9-0.1,1.9H308
				c11,0,29.3-5.3,29.3-27.1c0-22.1-15-26.1-29.6-26.1L283.8,259.5L283.8,259.5z M221.5,259.8c-1,0-1.3,1.8,0.1,1.8
				c1.5,0,4.7,0.4,4.7,5l-0.3,37.1c0,4-1.4,7.4-5.2,7.4c-1.3,0-1.3,1.7-0.3,1.7H236c1,0,1-1.7-0.2-1.7c-2.3,0-6.2-1-6.3-7.4
				l-0.3-37.8c0,0,39.6,46.6,39.9,46.8h2.7l0.2-44.6c0-4.4,1.9-6.8,6.7-6.8c1,0,1-1.5,0-1.5h-17.3c-1,0-1,1.5,0,1.5
				c1.8,0,7.1,0.3,7.2,6.1l0.4,32.5l-34-40.1H221.5L221.5,259.8z M173.4,285.8c0-13.5,6.3-24,17.8-24c10.3,0,18.1,9.9,18.1,24
				c0,17.3-7,24.9-18.1,24.9C180.4,310.7,173.4,300.4,173.4,285.8 M191.2,313.2c15.5,0,26.6-10.8,26.6-27.3
				c0-14.5-10.8-26.3-26.6-26.3c-15.4,0-26.4,12-26.4,26.3C164.8,301.4,175.2,313.2,191.2,313.2 M451,341.7H114.2v7.3H451V341.7
				L451,341.7z M451,331.5H114.2v3.2H451V331.5L451,331.5z M113.5,259.8H135c1.1,0,1.4,1.8,0.1,1.8c-2.1,0-6.4,1-6.4,5.5v37.4
				c0,4.3,2.1,5.8,11.4,5.8c8.9,0,17.4-1.1,21.6-13c0.3-1,1.9-0.9,1.7,0.6l-2.8,14.8h-46.4c-1.6,0-1.3-1.9-0.3-1.9
				c3,0,6.7-1.4,6.7-6.9V268c0-4.6-2.7-6.5-7.2-6.5C112.3,261.6,112.2,259.8,113.5,259.8"/>
		</g>
	</g>
</g>
</svg>
