<?xml version="1.0" encoding="UTF-8"?><svg xmlns="http://www.w3.org/2000/svg" viewBox="0 0 200 80.33"><path d="m189.84,17.49c-7.72-.72-14.01,7.72-15.09,12.03-1.08,4.31,5.21,1.98,7,.18,1.8-1.8,5.21.72,3.41,4.49-1.8,3.77-8.98,7.18-12.57,8.44-3.59,1.26-17.42,3.05-25.68,2.33-8.26-.72,15.99-12.39,14.01-30.53-.32-2.94-1.62-7.72-12.93-9.88-11.32-2.15-19.94,6.65-24.79,12.39-4.85,5.75-3.95,12.03-6.11,17.6-2.15,5.57-12.93,10.42-17.49,11.32-4.56.9-5.68-4.67-8.55-7.54-2.87-2.87,11.49-6.83,15.63-9.34s7.54-9.88,7.72-15.81c.18-5.93-4.64-8.44-8.98-8.26-21.91.9-24.97,22.27-36.1,22.09-11.14-.18-10.06-10.42-16.34-17.42C46.69,2.58,33.04-1.01,26.21.25S-3.06,4.2.35,36.89c.21,1.97,2,6.96,7.72,7.72,14.73,1.98,20.48-17.42,19.22-19.76s-1.98.9-3.59,3.95c-1.62,3.05-5.57,7.36-10.06,7.9-4.49.54-5.93-2.87-6.29-7.9-.36-5.03,4.67-14.83,15.09-17.24,25.7-5.95,35.02,16.52,35.2,19.4s-3.05,6.36-12.03,8.33c-8.98,1.98-25.5,20.94-14.66,34.78,5.54,7.07,16.99,7.01,24.71,3.94,8.18-3.25,13.92-17.5,15.45-22.45,5.39-17.42,29.1-12.75,19.58,7.72-2.71,5.83.85,16.32,4.49,16.88,5.93.91,11.67-2.34,17.06-8.8,5.56-6.67,6.11-17.06,10.78-22.99,4.67-5.93,17.6,1.98,23.89,1.98s52.27-5.03,52.99-18.14c.72-13.11-2.34-14.01-10.06-14.73ZM60.52,65.09c-11.32,11.67-19.58,4.85-21.91,2.33-2.34-2.51-5.11-10.3,5.75-21.19,10.86-10.89,18.33-7.28,20.48-6.06,2.14,1.22,7,13.25-4.31,24.92Zm26.4-35.02c-2.34-1.98-1.98-6.65,5.93-12.57,7.9-5.93,9.92-6.29,11.96-4.49,2.05,1.8.97,6.83-4.06,11.85-5.03,5.03-11.5,7.18-13.83,5.21Zm24.43,29.64c-1.62,3.05-9.16,12.39-12.93,8.98-3.77-3.41.9-9.34,2.51-10.96,0,0,5.03-6.66,10.42-6.65,1.83,0,1.62,5.57,0,8.62Zm14.01-20.4c-5.87-7.15,1.8-15.16,5.93-20.91s12.75-8.44,18.14-5.75c5.39,2.69,2.51,14.73-2.69,20.3-5.21,5.57-19.55,8.58-21.37,6.36Z" fill="#cdcac7"/></svg>