<?xml version="1.0" encoding="UTF-8"?><svg id="a" xmlns="http://www.w3.org/2000/svg" viewBox="0 0 800 1536"><defs><style>.b{fill:#f8f0e8;}.b,.c,.d,.e,.f,.g,.h,.i,.j{opacity:.5;}.c{fill:#f7eee5;}.d{fill:#fdfaf7;}.e,.k{fill:#f1e2d4;}.f{fill:#f4e9de;}.g,.l{fill:#edd9c7;}.h{fill:#faf5f0;}.i{fill:#fbf6f2;}.j,.m{fill:#f0e0d1;}.l,.m,.k,.n,.o{opacity:.3;}.n{fill:#ead4bf;}.o{fill:#ebd6c2;}</style></defs><g><polygon class="n" points="307 1536 364.6 1536 364.6 1478.4 307 1536"/><polygon class="c" points="422.2 1420.8 364.6 1420.8 364.6 1478.4 422.2 1420.8"/><polygon class="j" points="364.6 1478.4 422.2 1478.4 422.2 1420.8 364.6 1478.4"/><polygon class="f" points="364.6 1536 422.2 1536 422.2 1478.4 364.6 1536"/><polygon class="l" points="422.2 1478.4 364.6 1478.4 364.6 1536 422.2 1478.4"/><polygon class="n" points="479.8 1305.6 479.8 1363.2 537.4 1363.2 479.8 1305.6"/><polygon class="h" points="422.2 1363.2 479.8 1363.2 479.8 1305.6 422.2 1363.2"/><polygon class="e" points="479.8 1478.4 479.8 1420.8 422.2 1420.8 479.8 1478.4"/><polygon class="d" points="595 1420.8 537.4 1420.8 537.4 1478.4 595 1420.8"/><polygon class="o" points="422.2 1420.8 422.2 1478.4 479.8 1478.4 422.2 1420.8"/><polygon class="c" points="479.8 1420.8 537.4 1420.8 537.4 1363.2 479.8 1420.8"/><polygon class="h" points="537.4 1363.2 479.8 1363.2 479.8 1420.8 537.4 1363.2"/><polygon class="i" points="364.6 1420.8 422.2 1420.8 422.2 1363.2 364.6 1420.8"/><polygon class="c" points="537.4 1420.8 479.8 1420.8 479.8 1478.4 537.4 1420.8"/><polygon class="j" points="479.8 1478.4 537.4 1478.4 537.4 1420.8 479.8 1478.4"/><polygon class="f" points="422.2 1536 479.8 1536 479.8 1478.4 422.2 1536"/><polygon class="g" points="537.4 1478.4 479.8 1478.4 479.8 1536 537.4 1478.4"/><polygon class="b" points="422.2 1363.2 422.2 1420.8 479.8 1420.8 422.2 1363.2"/><polygon class="f" points="479.8 1420.8 479.8 1363.2 422.2 1363.2 479.8 1420.8"/><polygon class="c" points="479.8 1305.6 422.2 1305.6 422.2 1363.2 479.8 1305.6"/><polygon class="k" points="537.4 1363.2 537.4 1420.8 595 1420.8 537.4 1363.2"/><polygon class="c" points="479.8 1536 537.4 1536 537.4 1478.4 479.8 1536"/><polygon class="m" points="537.4 1478.4 537.4 1536 595 1536 537.4 1478.4"/><polygon class="n" points="537.4 1190.4 537.4 1248 595 1248 537.4 1190.4"/><polygon class="h" points="479.8 1248 537.4 1248 537.4 1190.4 479.8 1248"/><polygon class="e" points="537.4 1363.2 537.4 1305.6 479.8 1305.6 537.4 1363.2"/><polygon class="c" points="537.4 1305.6 595 1305.6 595 1248 537.4 1305.6"/><polygon class="c" points="595 1305.6 537.4 1305.6 537.4 1363.2 595 1305.6"/><polygon class="b" points="479.8 1248 479.8 1305.6 537.4 1305.6 479.8 1248"/><polygon class="f" points="537.4 1305.6 537.4 1248 479.8 1248 537.4 1305.6"/><polygon class="c" points="537.4 1190.4 479.8 1190.4 479.8 1248 537.4 1190.4"/><g><polygon class="c" points="767.78 1248.27 825.38 1248.27 825.38 1305.87 767.78 1248.27"/><polygon class="j" points="825.38 1305.87 767.78 1305.87 767.78 1248.27 825.38 1305.87"/><polygon class="f" points="825.38 1363.47 767.78 1363.47 767.78 1305.87 825.38 1363.47"/><polygon class="l" points="767.78 1305.87 825.38 1305.87 825.38 1363.47 767.78 1305.87"/><polygon class="n" points="710.18 1133.07 710.18 1190.67 652.58 1190.67 710.18 1133.07"/><polygon class="h" points="767.78 1190.67 710.18 1190.67 710.18 1133.07 767.78 1190.67"/><polygon class="e" points="710.18 1305.87 710.18 1248.27 767.78 1248.27 710.18 1305.87"/><polygon class="d" points="594.98 1248.27 652.58 1248.27 652.58 1305.87 594.98 1248.27"/><polygon class="o" points="767.78 1248.27 767.78 1305.87 710.18 1305.87 767.78 1248.27"/><polygon class="c" points="710.18 1248.27 652.58 1248.27 652.58 1190.67 710.18 1248.27"/><polygon class="h" points="652.58 1190.67 710.18 1190.67 710.18 1248.27 652.58 1190.67"/><polygon class="i" points="825.38 1248.27 767.78 1248.27 767.78 1190.67 825.38 1248.27"/><polygon class="c" points="652.58 1248.27 710.18 1248.27 710.18 1305.87 652.58 1248.27"/><polygon class="j" points="710.18 1305.87 652.58 1305.87 652.58 1248.27 710.18 1305.87"/><polygon class="f" points="767.78 1363.47 710.18 1363.47 710.18 1305.87 767.78 1363.47"/><polygon class="g" points="652.58 1305.87 710.18 1305.87 710.18 1363.47 652.58 1305.87"/><polygon class="b" points="767.78 1190.67 767.78 1248.27 710.18 1248.27 767.78 1190.67"/><polygon class="f" points="710.18 1248.27 710.18 1190.67 767.78 1190.67 710.18 1248.27"/><polygon class="c" points="710.18 1133.07 767.78 1133.07 767.78 1190.67 710.18 1133.07"/><polygon class="k" points="652.58 1190.67 652.58 1248.27 594.98 1248.27 652.58 1190.67"/><polygon class="c" points="710.18 1363.47 652.58 1363.47 652.58 1305.87 710.18 1363.47"/><polygon class="m" points="652.58 1305.87 652.58 1363.47 594.98 1363.47 652.58 1305.87"/><polygon class="n" points="652.58 1017.87 652.58 1075.47 594.98 1075.47 652.58 1017.87"/><polygon class="h" points="710.18 1075.47 652.58 1075.47 652.58 1017.87 710.18 1075.47"/><polygon class="e" points="652.58 1190.67 652.58 1133.07 710.18 1133.07 652.58 1190.67"/><polygon class="c" points="652.58 1133.07 594.98 1133.07 594.98 1075.47 652.58 1133.07"/><polygon class="h" points="594.98 1075.47 652.58 1075.47 652.58 1133.07 594.98 1075.47"/><polygon class="c" points="594.98 1133.07 652.58 1133.07 652.58 1190.67 594.98 1133.07"/><polygon class="b" points="710.18 1075.47 710.18 1133.07 652.58 1133.07 710.18 1075.47"/><polygon class="f" points="652.58 1133.07 652.58 1075.47 710.18 1075.47 652.58 1133.07"/><polygon class="c" points="652.58 1017.87 710.18 1017.87 710.18 1075.47 652.58 1017.87"/></g><polygon class="n" points="479.98 1536.47 537.58 1536.47 537.58 1478.87 479.98 1536.47"/><polygon class="c" points="595.18 1421.27 537.58 1421.27 537.58 1478.87 595.18 1421.27"/><polygon class="j" points="537.58 1478.87 595.18 1478.87 595.18 1421.27 537.58 1478.87"/><polygon class="f" points="537.58 1536.47 595.18 1536.47 595.18 1478.87 537.58 1536.47"/><polygon class="l" points="595.18 1478.87 537.58 1478.87 537.58 1536.47 595.18 1478.87"/><polygon class="h" points="595.18 1363.67 652.78 1363.67 652.78 1306.07 595.18 1363.67"/><polygon class="e" points="652.78 1478.87 652.78 1421.27 595.18 1421.27 652.78 1478.87"/><polygon class="d" points="767.98 1421.27 710.38 1421.27 710.38 1478.87 767.98 1421.27"/><polygon class="o" points="595.18 1421.27 595.18 1478.87 652.78 1478.87 595.18 1421.27"/><polygon class="c" points="652.78 1421.27 710.38 1421.27 710.38 1363.67 652.78 1421.27"/><polygon class="h" points="710.38 1363.67 652.78 1363.67 652.78 1421.27 710.38 1363.67"/><polygon class="i" points="537.58 1421.27 595.18 1421.27 595.18 1363.67 537.58 1421.27"/><polygon class="c" points="710.38 1421.27 652.78 1421.27 652.78 1478.87 710.38 1421.27"/><polygon class="j" points="652.78 1478.87 710.38 1478.87 710.38 1421.27 652.78 1478.87"/><polygon class="f" points="595.18 1536.47 652.78 1536.47 652.78 1478.87 595.18 1536.47"/><polygon class="g" points="710.38 1478.87 652.78 1478.87 652.78 1536.47 710.38 1478.87"/><polygon class="b" points="595.18 1363.67 595.18 1421.27 652.78 1421.27 595.18 1363.67"/><polygon class="f" points="652.78 1421.27 652.78 1363.67 595.18 1363.67 652.78 1421.27"/><polygon class="c" points="652.78 1306.07 595.18 1306.07 595.18 1363.67 652.78 1306.07"/><polygon class="k" points="710.38 1363.67 710.38 1421.27 767.98 1421.27 710.38 1363.67"/><polygon class="c" points="652.78 1536.47 710.38 1536.47 710.38 1478.87 652.78 1536.47"/><polygon class="m" points="710.38 1478.87 710.38 1536.47 767.98 1536.47 710.38 1478.87"/><g><polygon class="n" points="595.98 844.51 653.58 844.51 653.58 902.11 595.98 844.51"/><polygon class="c" points="711.18 959.71 653.58 959.71 653.58 902.11 711.18 959.71"/><polygon class="j" points="653.58 902.11 711.18 902.11 711.18 959.71 653.58 902.11"/><polygon class="f" points="653.58 844.51 711.18 844.51 711.18 902.11 653.58 844.51"/><polygon class="l" points="711.18 902.11 653.58 902.11 653.58 844.51 711.18 902.11"/><polygon class="n" points="768.78 1074.91 768.78 1017.31 826.38 1017.31 768.78 1074.91"/><polygon class="h" points="711.18 1017.31 768.78 1017.31 768.78 1074.91 711.18 1017.31"/><polygon class="e" points="768.78 902.11 768.78 959.71 711.18 959.71 768.78 902.11"/><polygon class="o" points="711.18 959.71 711.18 902.11 768.78 902.11 711.18 959.71"/><polygon class="c" points="768.78 959.71 826.38 959.71 826.38 1017.31 768.78 959.71"/><polygon class="h" points="826.38 1017.31 768.78 1017.31 768.78 959.71 826.38 1017.31"/><polygon class="i" points="653.58 959.71 711.18 959.71 711.18 1017.31 653.58 959.71"/><polygon class="c" points="826.38 959.71 768.78 959.71 768.78 902.11 826.38 959.71"/><polygon class="j" points="768.78 902.11 826.38 902.11 826.38 959.71 768.78 902.11"/><polygon class="f" points="711.18 844.51 768.78 844.51 768.78 902.11 711.18 844.51"/><polygon class="g" points="826.38 902.11 768.78 902.11 768.78 844.51 826.38 902.11"/><polygon class="b" points="711.18 1017.31 711.18 959.71 768.78 959.71 711.18 1017.31"/><polygon class="f" points="768.78 959.71 768.78 1017.31 711.18 1017.31 768.78 959.71"/><polygon class="c" points="768.78 1074.91 711.18 1074.91 711.18 1017.31 768.78 1074.91"/><polygon class="c" points="768.78 844.51 826.38 844.51 826.38 902.11 768.78 844.51"/><polygon class="h" points="768.78 1132.51 826.38 1132.51 826.38 1190.11 768.78 1132.51"/><polygon class="e" points="826.38 1017.31 826.38 1074.91 768.78 1074.91 826.38 1017.31"/><polygon class="b" points="768.78 1132.51 768.78 1074.91 826.38 1074.91 768.78 1132.51"/><polygon class="f" points="826.38 1074.91 826.38 1132.51 768.78 1132.51 826.38 1074.91"/><polygon class="c" points="826.38 1190.11 768.78 1190.11 768.78 1132.51 826.38 1190.11"/></g><g><polygon class="n" points="769.09 613.92 769.09 671.52 711.49 671.52 769.09 613.92"/><polygon class="h" points="826.69 671.52 769.09 671.52 769.09 613.92 826.69 671.52"/><polygon class="e" points="769.09 786.72 769.09 729.12 826.69 729.12 769.09 786.72"/><polygon class="d" points="653.89 729.12 711.49 729.12 711.49 786.72 653.89 729.12"/><polygon class="o" points="826.69 729.12 826.69 786.72 769.09 786.72 826.69 729.12"/><polygon class="c" points="769.09 729.12 711.49 729.12 711.49 671.52 769.09 729.12"/><polygon class="h" points="711.49 671.52 769.09 671.52 769.09 729.12 711.49 671.52"/><polygon class="c" points="711.49 729.12 769.09 729.12 769.09 786.72 711.49 729.12"/><polygon class="j" points="769.09 786.72 711.49 786.72 711.49 729.12 769.09 786.72"/><polygon class="f" points="826.69 844.32 769.09 844.32 769.09 786.72 826.69 844.32"/><polygon class="g" points="711.49 786.72 769.09 786.72 769.09 844.32 711.49 786.72"/><polygon class="b" points="826.69 671.52 826.69 729.12 769.09 729.12 826.69 671.52"/><polygon class="f" points="769.09 729.12 769.09 671.52 826.69 671.52 769.09 729.12"/><polygon class="c" points="769.09 613.92 826.69 613.92 826.69 671.52 769.09 613.92"/><polygon class="k" points="711.49 671.52 711.49 729.12 653.89 729.12 711.49 671.52"/><polygon class="c" points="769.09 844.32 711.49 844.32 711.49 786.72 769.09 844.32"/><polygon class="m" points="711.49 786.72 711.49 844.32 653.89 844.32 711.49 786.72"/><polygon class="n" points="711.49 498.72 711.49 556.32 653.89 556.32 711.49 498.72"/><polygon class="h" points="769.09 556.32 711.49 556.32 711.49 498.72 769.09 556.32"/><polygon class="e" points="711.49 671.52 711.49 613.92 769.09 613.92 711.49 671.52"/><polygon class="c" points="711.49 613.92 653.89 613.92 653.89 556.32 711.49 613.92"/><polygon class="h" points="653.89 556.32 711.49 556.32 711.49 613.92 653.89 556.32"/><polygon class="c" points="653.89 613.92 711.49 613.92 711.49 671.52 653.89 613.92"/><polygon class="b" points="769.09 556.32 769.09 613.92 711.49 613.92 769.09 556.32"/><polygon class="f" points="711.49 613.92 711.49 556.32 769.09 556.32 711.49 613.92"/><polygon class="c" points="711.49 498.72 769.09 498.72 769.09 556.32 711.49 498.72"/></g></g><g><polygon class="n" points="307 .19 364.6 .19 364.6 57.79 307 .19"/><polygon class="c" points="422.2 115.39 364.6 115.39 364.6 57.79 422.2 115.39"/><polygon class="j" points="364.6 57.79 422.2 57.79 422.2 115.39 364.6 57.79"/><polygon class="f" points="364.6 .19 422.2 .19 422.2 57.79 364.6 .19"/><polygon class="l" points="422.2 57.79 364.6 57.79 364.6 .19 422.2 57.79"/><polygon class="n" points="479.8 230.59 479.8 172.99 537.4 172.99 479.8 230.59"/><polygon class="h" points="422.2 172.99 479.8 172.99 479.8 230.59 422.2 172.99"/><polygon class="e" points="479.8 57.79 479.8 115.39 422.2 115.39 479.8 57.79"/><polygon class="d" points="595 115.39 537.4 115.39 537.4 57.79 595 115.39"/><polygon class="o" points="422.2 115.39 422.2 57.79 479.8 57.79 422.2 115.39"/><polygon class="c" points="479.8 115.39 537.4 115.39 537.4 172.99 479.8 115.39"/><polygon class="h" points="537.4 172.99 479.8 172.99 479.8 115.39 537.4 172.99"/><polygon class="i" points="364.6 115.39 422.2 115.39 422.2 172.99 364.6 115.39"/><polygon class="c" points="537.4 115.39 479.8 115.39 479.8 57.79 537.4 115.39"/><polygon class="j" points="479.8 57.79 537.4 57.79 537.4 115.39 479.8 57.79"/><polygon class="f" points="422.2 .19 479.8 .19 479.8 57.79 422.2 .19"/><polygon class="g" points="537.4 57.79 479.8 57.79 479.8 .19 537.4 57.79"/><polygon class="b" points="422.2 172.99 422.2 115.39 479.8 115.39 422.2 172.99"/><polygon class="f" points="479.8 115.39 479.8 172.99 422.2 172.99 479.8 115.39"/><polygon class="c" points="479.8 230.59 422.2 230.59 422.2 172.99 479.8 230.59"/><polygon class="k" points="537.4 172.99 537.4 115.39 595 115.39 537.4 172.99"/><polygon class="c" points="479.8 .19 537.4 .19 537.4 57.79 479.8 .19"/><polygon class="m" points="537.4 57.79 537.4 .19 595 .19 537.4 57.79"/><polygon class="n" points="537.4 345.79 537.4 288.19 595 288.19 537.4 345.79"/><polygon class="h" points="479.8 288.19 537.4 288.19 537.4 345.79 479.8 288.19"/><polygon class="e" points="537.4 172.99 537.4 230.59 479.8 230.59 537.4 172.99"/><polygon class="c" points="537.4 230.59 595 230.59 595 288.19 537.4 230.59"/><polygon class="c" points="595 230.59 537.4 230.59 537.4 172.99 595 230.59"/><polygon class="b" points="479.8 288.19 479.8 230.59 537.4 230.59 479.8 288.19"/><polygon class="f" points="537.4 230.59 537.4 288.19 479.8 288.19 537.4 230.59"/><polygon class="c" points="537.4 345.79 479.8 345.79 479.8 288.19 537.4 345.79"/><g><polygon class="c" points="767.78 287.92 825.38 287.92 825.38 230.32 767.78 287.92"/><polygon class="j" points="825.38 230.32 767.78 230.32 767.78 287.92 825.38 230.32"/><polygon class="f" points="825.38 172.72 767.78 172.72 767.78 230.32 825.38 172.72"/><polygon class="l" points="767.78 230.32 825.38 230.32 825.38 172.72 767.78 230.32"/><polygon class="n" points="710.18 403.12 710.18 345.52 652.58 345.52 710.18 403.12"/><polygon class="h" points="767.78 345.52 710.18 345.52 710.18 403.12 767.78 345.52"/><polygon class="e" points="710.18 230.32 710.18 287.92 767.78 287.92 710.18 230.32"/><polygon class="d" points="594.98 287.92 652.58 287.92 652.58 230.32 594.98 287.92"/><polygon class="o" points="767.78 287.92 767.78 230.32 710.18 230.32 767.78 287.92"/><polygon class="c" points="710.18 287.92 652.58 287.92 652.58 345.52 710.18 287.92"/><polygon class="h" points="652.58 345.52 710.18 345.52 710.18 287.92 652.58 345.52"/><polygon class="i" points="825.38 287.92 767.78 287.92 767.78 345.52 825.38 287.92"/><polygon class="c" points="652.58 287.92 710.18 287.92 710.18 230.32 652.58 287.92"/><polygon class="j" points="710.18 230.32 652.58 230.32 652.58 287.92 710.18 230.32"/><polygon class="f" points="767.78 172.72 710.18 172.72 710.18 230.32 767.78 172.72"/><polygon class="g" points="652.58 230.32 710.18 230.32 710.18 172.72 652.58 230.32"/><polygon class="b" points="767.78 345.52 767.78 287.92 710.18 287.92 767.78 345.52"/><polygon class="f" points="710.18 287.92 710.18 345.52 767.78 345.52 710.18 287.92"/><polygon class="c" points="710.18 403.12 767.78 403.12 767.78 345.52 710.18 403.12"/><polygon class="k" points="652.58 345.52 652.58 287.92 594.98 287.92 652.58 345.52"/><polygon class="c" points="710.18 172.72 652.58 172.72 652.58 230.32 710.18 172.72"/><polygon class="m" points="652.58 230.32 652.58 172.72 594.98 172.72 652.58 230.32"/><polygon class="n" points="652.58 518.32 652.58 460.72 594.98 460.72 652.58 518.32"/><polygon class="h" points="710.18 460.72 652.58 460.72 652.58 518.32 710.18 460.72"/><polygon class="e" points="652.58 345.52 652.58 403.12 710.18 403.12 652.58 345.52"/><polygon class="c" points="652.58 403.12 594.98 403.12 594.98 460.72 652.58 403.12"/><polygon class="h" points="594.98 460.72 652.58 460.72 652.58 403.12 594.98 460.72"/><polygon class="c" points="594.98 403.12 652.58 403.12 652.58 345.52 594.98 403.12"/><polygon class="b" points="710.18 460.72 710.18 403.12 652.58 403.12 710.18 460.72"/><polygon class="f" points="652.58 403.12 652.58 460.72 710.18 460.72 652.58 403.12"/><polygon class="c" points="652.58 518.32 710.18 518.32 710.18 460.72 652.58 518.32"/></g><polygon class="n" points="479.98 -.28 537.58 -.28 537.58 57.32 479.98 -.28"/><polygon class="c" points="595.18 114.92 537.58 114.92 537.58 57.32 595.18 114.92"/><polygon class="j" points="537.58 57.32 595.18 57.32 595.18 114.92 537.58 57.32"/><polygon class="f" points="537.58 -.28 595.18 -.28 595.18 57.32 537.58 -.28"/><polygon class="l" points="595.18 57.32 537.58 57.32 537.58 -.28 595.18 57.32"/><polygon class="h" points="595.18 172.52 652.78 172.52 652.78 230.12 595.18 172.52"/><polygon class="e" points="652.78 57.32 652.78 114.92 595.18 114.92 652.78 57.32"/><polygon class="d" points="767.98 114.92 710.38 114.92 710.38 57.32 767.98 114.92"/><polygon class="o" points="595.18 114.92 595.18 57.32 652.78 57.32 595.18 114.92"/><polygon class="c" points="652.78 114.92 710.38 114.92 710.38 172.52 652.78 114.92"/><polygon class="h" points="710.38 172.52 652.78 172.52 652.78 114.92 710.38 172.52"/><polygon class="i" points="537.58 114.92 595.18 114.92 595.18 172.52 537.58 114.92"/><polygon class="c" points="710.38 114.92 652.78 114.92 652.78 57.32 710.38 114.92"/><polygon class="j" points="652.78 57.32 710.38 57.32 710.38 114.92 652.78 57.32"/><polygon class="f" points="595.18 -.28 652.78 -.28 652.78 57.32 595.18 -.28"/><polygon class="g" points="710.38 57.32 652.78 57.32 652.78 -.28 710.38 57.32"/><polygon class="b" points="595.18 172.52 595.18 114.92 652.78 114.92 595.18 172.52"/><polygon class="f" points="652.78 114.92 652.78 172.52 595.18 172.52 652.78 114.92"/><polygon class="c" points="652.78 230.12 595.18 230.12 595.18 172.52 652.78 230.12"/><polygon class="k" points="710.38 172.52 710.38 114.92 767.98 114.92 710.38 172.52"/><polygon class="c" points="652.78 -.28 710.38 -.28 710.38 57.32 652.78 -.28"/><polygon class="m" points="710.38 57.32 710.38 -.28 767.98 -.28 710.38 57.32"/><g><polygon class="n" points="595.98 691.68 653.58 691.68 653.58 634.08 595.98 691.68"/><polygon class="c" points="711.18 576.48 653.58 576.48 653.58 634.08 711.18 576.48"/><polygon class="j" points="653.58 634.08 711.18 634.08 711.18 576.48 653.58 634.08"/><polygon class="f" points="653.58 691.68 711.18 691.68 711.18 634.08 653.58 691.68"/><polygon class="l" points="711.18 634.08 653.58 634.08 653.58 691.68 711.18 634.08"/><polygon class="n" points="768.78 461.28 768.78 518.88 826.38 518.88 768.78 461.28"/><polygon class="h" points="711.18 518.88 768.78 518.88 768.78 461.28 711.18 518.88"/><polygon class="e" points="768.78 634.08 768.78 576.48 711.18 576.48 768.78 634.08"/><polygon class="o" points="711.18 576.48 711.18 634.08 768.78 634.08 711.18 576.48"/><polygon class="c" points="768.78 576.48 826.38 576.48 826.38 518.88 768.78 576.48"/><polygon class="h" points="826.38 518.88 768.78 518.88 768.78 576.48 826.38 518.88"/><polygon class="i" points="653.58 576.48 711.18 576.48 711.18 518.88 653.58 576.48"/><polygon class="c" points="826.38 576.48 768.78 576.48 768.78 634.08 826.38 576.48"/><polygon class="j" points="768.78 634.08 826.38 634.08 826.38 576.48 768.78 634.08"/><polygon class="f" points="711.18 691.68 768.78 691.68 768.78 634.08 711.18 691.68"/><polygon class="g" points="826.38 634.08 768.78 634.08 768.78 691.68 826.38 634.08"/><polygon class="b" points="711.18 518.88 711.18 576.48 768.78 576.48 711.18 518.88"/><polygon class="f" points="768.78 576.48 768.78 518.88 711.18 518.88 768.78 576.48"/><polygon class="c" points="768.78 461.28 711.18 461.28 711.18 518.88 768.78 461.28"/><polygon class="c" points="768.78 691.68 826.38 691.68 826.38 634.08 768.78 691.68"/><polygon class="h" points="768.78 403.68 826.38 403.68 826.38 346.08 768.78 403.68"/><polygon class="e" points="826.38 518.88 826.38 461.28 768.78 461.28 826.38 518.88"/><polygon class="b" points="768.78 403.68 768.78 461.28 826.38 461.28 768.78 403.68"/><polygon class="f" points="826.38 461.28 826.38 403.68 768.78 403.68 826.38 461.28"/><polygon class="c" points="826.38 346.08 768.78 346.08 768.78 403.68 826.38 346.08"/></g><g><polygon class="n" points="769.09 922.27 769.09 864.67 711.49 864.67 769.09 922.27"/><polygon class="h" points="826.69 864.67 769.09 864.67 769.09 922.27 826.69 864.67"/><polygon class="e" points="769.09 749.47 769.09 807.07 826.69 807.07 769.09 749.47"/><polygon class="d" points="653.89 807.07 711.49 807.07 711.49 749.47 653.89 807.07"/><polygon class="o" points="826.69 807.07 826.69 749.47 769.09 749.47 826.69 807.07"/><polygon class="c" points="769.09 807.07 711.49 807.07 711.49 864.67 769.09 807.07"/><polygon class="h" points="711.49 864.67 769.09 864.67 769.09 807.07 711.49 864.67"/><polygon class="c" points="711.49 807.07 769.09 807.07 769.09 749.47 711.49 807.07"/><polygon class="j" points="769.09 749.47 711.49 749.47 711.49 807.07 769.09 749.47"/><polygon class="f" points="826.69 691.87 769.09 691.87 769.09 749.47 826.69 691.87"/><polygon class="g" points="711.49 749.47 769.09 749.47 769.09 691.87 711.49 749.47"/><polygon class="b" points="826.69 864.67 826.69 807.07 769.09 807.07 826.69 864.67"/><polygon class="f" points="769.09 807.07 769.09 864.67 826.69 864.67 769.09 807.07"/><polygon class="c" points="769.09 922.27 826.69 922.27 826.69 864.67 769.09 922.27"/><polygon class="k" points="711.49 864.67 711.49 807.07 653.89 807.07 711.49 864.67"/><polygon class="c" points="769.09 691.87 711.49 691.87 711.49 749.47 769.09 691.87"/><polygon class="m" points="711.49 749.47 711.49 691.87 653.89 691.87 711.49 749.47"/><polygon class="n" points="711.49 1037.47 711.49 979.87 653.89 979.87 711.49 1037.47"/><polygon class="h" points="769.09 979.87 711.49 979.87 711.49 1037.47 769.09 979.87"/><polygon class="e" points="711.49 864.67 711.49 922.27 769.09 922.27 711.49 864.67"/><polygon class="c" points="711.49 922.27 653.89 922.27 653.89 979.87 711.49 922.27"/><polygon class="h" points="653.89 979.87 711.49 979.87 711.49 922.27 653.89 979.87"/><polygon class="c" points="653.89 922.27 711.49 922.27 711.49 864.67 653.89 922.27"/><polygon class="b" points="769.09 979.87 769.09 922.27 711.49 922.27 769.09 979.87"/><polygon class="f" points="711.49 922.27 711.49 979.87 769.09 979.87 711.49 922.27"/><polygon class="c" points="711.49 1037.47 769.09 1037.47 769.09 979.87 711.49 1037.47"/></g></g></svg>