<svg xmlns="http://www.w3.org/2000/svg" xmlns:xlink="http://www.w3.org/1999/xlink">
  <!-- https://fontawesome.com/v5/search?q=clone&o=r  -->
  <!-- Font Awesome Free 6.4.0 by @fontawesome  -->
  
  <defs>
    <!-- font-awesome clone -->
    <symbol id="clone" viewBox="0 0 512 512">
      <path d="M0 448c0 35.3 28.7 64 64 64H288c35.3 0 64-28.7 64-64V384H224c-53 0-96-43-96-96V160H64c-35.3 0-64 28.7-64 64V448zm224-96H448c35.3 0 64-28.7 64-64V64c0-35.3-28.7-64-64-64H224c-35.3 0-64 28.7-64 64V288c0 35.3 28.7 64 64 64z"/>
    </symbol>

    <!-- font-awesome close -->
    <symbol id="close" viewBox="0 0 320 512">
      <path d="M310.6 150.6c12.5-12.5 12.5-32.8 0-45.3s-32.8-12.5-45.3 0L160 210.7 54.6 105.4c-12.5-12.5-32.8-12.5-45.3 0s-12.5 32.8 0 45.3L114.7 256 9.4 361.4c-12.5 12.5-12.5 32.8 0 45.3s32.8 12.5 45.3 0L160 301.3 265.4 406.6c12.5 12.5 32.8 12.5 45.3 0s12.5-32.8 0-45.3L205.3 256 310.6 150.6z"/>
    </symbol>

    <!-- font-awesome angle-left -->
    <symbol id="angle-left" viewBox="0 0 320 512">
      <path d="M41.4 233.4c-12.5 12.5-12.5 32.8 0 45.3l160 160c12.5 12.5 32.8 12.5 45.3 0s12.5-32.8 0-45.3L109.3 256 246.6 118.6c12.5-12.5 12.5-32.8 0-45.3s-32.8-12.5-45.3 0l-160 160z"/>
    </symbol>

    <!-- font-awesome angle-right -->
    <symbol id="angle-right" viewBox="0 0 320 512">
      <path d="M278.6 233.4c12.5 12.5 12.5 32.8 0 45.3l-160 160c-12.5 12.5-32.8 12.5-45.3 0s-12.5-32.8 0-45.3L210.7 256 73.4 118.6c-12.5-12.5-12.5-32.8 0-45.3s32.8-12.5 45.3 0l160 160z"/>
    </symbol>

    <symbol id="print" viewBox="0 0 512 512">
      <path d="M448 192V77.3c0-8.5-3.4-16.6-9.4-22.6L393.4 9.4c-6-6-14.1-9.4-22.6-9.4H96C78.3 0 64 14.3 64 32v160c-35.4 0-64 28.7-64 64v112c0 8.8 7.2 16 16 16h48v96c0 17.7 14.3 32 32 32h320c17.7 0 32-14.3 32-32v-96h48c8.8 0 16-7.2 16-16V256c0-35.4-28.7-64-64-64zm-64 256H128v-96h256v96zm0-224H128V64h192v48c0 8.8 7.2 16 16 16h48v96zm48 72c-13.3 0-24-10.8-24-24 0-13.3 10.8-24 24-24s24 10.7 24 24c0 13.3-10.8 24-24 24z"/>
    </symbol>

  </defs>

</svg>