<?xml version="1.0" encoding="UTF-8"?><svg id="a" xmlns="http://www.w3.org/2000/svg" viewBox="0 0 365.42 355.83"><defs><style>.b{fill:#462200;}.c{opacity:.15;}</style></defs><g class="c"><path class="b" d="m70.83,200.43c1.96-4.3,3.91-8.58,6.15-13.5-4.73.9-9.12,1.74-13.42,2.56-.96,19.32-19.89,33.01-36.89,24.95,18.09,1.67,18.12-12.8,24.01-22.72-2.99.69-5.4,1.24-7.93,1.83.1-3.02-.03-4.94-3.99-4.23-4.47.8-9.39-.05-11.28,5.66-1.38,4.17-2.84,8.32-4.12,12.53-.37,1.2-.23,2.56-.33,3.94-3.87-1.87-4.01-4.32-1.02-9.82,1.8-3.31,3.41-6.73,5.11-10.1-.35-.3-.7-.6-1.05-.9-1.27,1.38-2.66,2.68-3.79,4.17-3.04,4.01-5.58,8.47-9.05,12.05-3.57,3.69-8.33,3.37-13.22-1.18,1.39-.2,2.95-.91,4.13-.51,4.54,1.55,9.57,0,12.33-4.79,1.9-3.3,2.17-7.91,4.68-10.4,7.05-6.99,7.89-19.35,19.74-22.26,2.51,3.67-.93,4.58-3.15,6.07-1.91,1.28-3.8,2.6-5.39,4.38.98-.23,1.95-.47,4.25-1.02-1.72,3.88-3.03,6.84-4.58,10.35,4.51,0,8.55,0,12.59,0,.33,0,.67-.06,1-.04,2.21.16,5.33,1.33,6.43.31,2.01-1.86,2.47-5.28,4.22-7.56,1.92-2.49,4.53-4.47,6.95-6.53.25-.21,1.31.54,2,.85-.29.66-.51,1.83-.9,1.89-5.92.96-6.55,6.2-9.07,10.33,7.75.2,6.48,1.61,9.16-5.74,1.13-3.11,3.18-6.88,8.57-6.44-3.03,3.53-5.68,6.62-8.92,10.39,7.37,2.67,14.82-3.44,19.93,3.27-2.65,2.33-5.56,4.88-8.36,7.34,5.18,6.53,11.54,6.01,17.74,5.96-7.81,5.13-14.77-.52-22.56-1.07Zm-9.2-10.89c-4.94.55-8.87.92-10.52,6.74-1.44,5.06-4.61,9.63-7.36,15.09.09.15.72,1.18,1.32,2.15,11.49-4.05,12.18-14.96,16.56-23.98Z"/><path class="b" d="m353.47,186.3c6.72-14.28,4.4-29.21,4.83-43.67-1.63-1.05-3.02-1.94-4.41-2.83.24-.41.48-.82.72-1.23,1.02.28,2.04.55,4.27,1.15-1.74-8.21-2.56-15.96-5.14-23.07-2.59-7.15-6.94-13.66-10.72-20.82,1.52-.25,2.73-.45,3.04-.5,1.23-3.81,2.8-7.05,3.28-10.44,1.23-8.76,1.71-17.63,3.01-26.37,1.2-8.12.66-15.95-2.11-23.63-.58-1.6-1.75-2.98-2.44-4.56-.52-1.17-.71-2.48-1.04-3.73,1.77.06,4.44-.57,5.15.32,1.89,2.42,3.85,5.4,4.15,8.33,1.13,11.01,2.24,22.06-.64,33.08-1.44,5.53-1.83,11.33-3.06,16.92-.83,3.75-2.92,7.3-3.26,11.04-.2,2.23,1.77,4.75,3.01,7.01,5.89,10.71,10.28,21.8,10.29,34.31,0,6.53.83,13.07.68,19.59-.09,3.82-1.35,7.62-1.37,11.77.66-1.31,1.31-2.62,1.97-3.92.58.42,1.16.83,1.74,1.25-3.86,9.07-7.72,18.14-11.59,27.21-.43-.14-.86-.27-1.29-.41.16-1.36.32-2.71.6-5.13-13.48,1.73-26.6,3.41-39.32,5.03,2.25-2.93,32.85-8.38,39.63-6.72Z"/><path class="b" d="m213.64,99.45c2.22-5.21,4.35-10.18,6.84-16.01-4.73.43-9.11.53-13.33,1.39-1.19.24-2.19,2.61-2.82,4.19-1.69,4.21-2.67,8.77-4.78,12.73-2.46,4.62-7.13,6.68-12.17,7.7-1.42.29-2.86.49-5.04.85-.42-1.92-.87-4.01-1.42-6.54,1.78,0,3.08-.4,3.91.06,5.42,3,9.79,2.17,12.26-3.05,2.28-4.83,3.98-9.93,5.97-14.98-8.74-1-10.67-.09-10.04,4.86-1.07-1.48-2.13-2.96-3.87-5.38,3.88-.9,7.81-2.09,11.83-2.65,3.33-.46,4.13-2.41,5.19-5.19,1.57-4.13,3.89-8.03,6.35-11.72.62-.93,2.95-.73,4.09-.96-3.58,5.53-6.8,10.48-10.01,15.43.26.49.53.98.79,1.47,5.74-.41,11.47-.83,17.5-1.26-.06.56-.19,1.68-.35,3.19,11.41-1.19,22.54-2.36,34.94-3.65-1.3,2.5-2.34,4.89-3.73,7.07-1.63,2.54-5.12,4.97-5,7.31.19,3.72-.61,5.69-3.28,7.26-.6-.27-1.2-.55-1.81-.82,2.59-5.59,5.18-11.17,7.72-16.66-7.39-2.05-10.86-.09-12.83,7.79-.2.81-.34,1.67-.73,2.38-.89,1.61-1.93,3.14-2.9,4.7-1.72-1.21-3.96-2.09-5-3.74-.79-1.25-.37-3.56.09-5.23.47-1.69,1.67-3.19,2.99-5.54-5.03,1.22-9.54,1.28-12.62,3.4-2.32,1.59-3.5,5.74-3.95,8.92-.57,4.06-1.84,4.59-4.76,2.68Zm26.14-13.38c-.51-.15-1.02-.31-1.53-.46-4.42,4.91-4.5,5.21-1.66,9.26,1.19-3.29,2.19-6.04,3.19-8.8Z"/><path class="b" d="m211.03,133.21c6.91.55,12.26,1.04,17.63,1.33.79.04,1.59-1.16,2.46-1.31,1.98-.33,4.29-1.05,5.98-.39,5.29,2.09,9.59-.51,14.1-2.26,1.48-.57,2.83-1.47,4.28-2.24,1.93,5.78-6.7,23.37-12.61,24.07,2-3.34,3.85-6.06,5.31-8.97,1.52-3.03,2.68-6.26,4.11-9.68-5.4,1.05-10.58,2.06-15.76,3.07-.24.44-.47.88-.71,1.32,1.85.96,3.7,1.92,5.34,2.77-.49.53-2.03,1.46-2.39,2.73-1.07,3.73-3.3,4.76-6.89,4.08-7.1-1.36-7.9-3.02-4.57-11.38-6.39,1.96-14.23-2.97-18.69,6.38,1.85-.33,3.08-.55,6.08-1.09-2.25,4.85-3.94,8.48-5.62,12.11-.66-.01-1.32-.02-1.98-.03-.31-1.65-.62-3.3-.92-4.94-1.4-7.64,2.41-13.81,5.28-20.42,1.78-4.11,1.85-9.05,6.22-11.62,1.27-.75,3.1-.55,5.99-.98-4.7,6.49-8.39,11.58-12.64,17.45Zm20.34,1.74c-.83,2.12-2.03,4.01-2.2,5.99-.12,1.31.9,3.33,2.01,3.96,1.08.61,2.93-.17,4.44-.34-.36-1.56-.53-3.2-1.14-4.66-.61-1.45-1.67-2.72-3.11-4.96Z"/><path class="b" d="m192.7,265.92c-.63-1.27-1.25-2.54-1.79-3.62-5.23-1.64-10.5-3.29-16.46-5.15-2.8,3.51-7.63,4.79-12.86,4.21-1.15-.13-3.17-2.47-2.96-3.35,1.77-7.35,10.38-15.93,18.57-14.41.65.12,1.43-.41,3.05-.93-.52,3.92-.94,7.09-1.4,10.56,2.45,4.84,7.18,6.21,13.13,5.87.55-3.11,1.16-6.55,1.83-10.3,3.69-5.55,7.72-11.63,12.25-18.45,4.25,8.63-4.27,9.87-6.11,15.41,6.45-.75,12.32-1.43,18.2-2.11-4.1,3.42-5.21,7.36-1.92,12.8,3.4.19,7.65.44,11.89.68.1.42.21.85.31,1.27-3.76.76-7.64,2.49-11.25,2.05-4.95-.61-7.06-5.46-6.79-13.09-3.71.3-7.43.29-10.99,1.04-1.25.26-2.7,2.21-3.04,3.64-1.06,4.48-1.63,9.07-2.39,13.61-.42.09-.84.18-1.26.28Zm-31.13-7.28c7.58,1,11.13-1.76,14.27-10.79-6.35-1.75-12.15,2.53-14.27,10.79Z"/><path class="b" d="m53.28,292.55c-1.27,5.8-2.4,10.96-3.51,16.03,7.62,2.72,10.72.99,14.03-6.57,1.23-2.82,3.23-5.3,4.87-7.94.75.41,1.5.81,2.25,1.22-.62,1.31-.92,2.98-1.92,3.88-3.71,3.4-5.45,7.46-4.65,12.4.17,1.03,1.37,1.9,2.1,2.84.85-.82,2.02-1.48,2.51-2.47,2.3-4.66,4.17-9.55,6.68-14.09,1.62-2.95,4.28-3.33,7.03-.89-3.71,2.08-6.72,4.02-7.61,8.76-.64,3.4-2.96,6.77-5.28,9.51-5.72,6.74-7.3,16.04-14.55,21.96-3.91,3.19-9.06,7.77-14.02,8.98-3.6.87-6.46-.09-8.79-3.08-.84-1.08-2.31-1.66-4.08-2.88-.27-5.45,3.57-7.24,9.21-7.08,4.13,4.91,4.06,5.48-1.12,8.04-.03.5-.06.99-.08,1.49,2.4,0,5.08.7,7.14-.13,6.39-2.58,11.28-7.18,14.97-13.03,1.21-1.92,2.79-3.67,3.64-5.72.63-1.51.35-3.39.51-5.61.12-.02,1.32-.28,2.71-.57-1.35-2.77-6.46-3.58-2.86-7.58-3.22,1.25-6.37,3.58-9.36,3.39-5.81-.37-6.49-1.85-5.81-8.28.35-3.32.84-6.7,1.95-9.81.45-1.27,2.71-1.91,4.04-2.76Z"/><path class="b" d="m111.97,113.69h-15.19c1.79,2.6,3.2,4.66,4.62,6.72-.33.31-.65.63-.98.94-2.83-2.52-5.67-5.01-8.4-7.63-.07-.07.96-1.78,1.76-2.17,5.36-2.66,10.92-1.14,16.43-.57,4.54.47,9.1,1.33,13.63,1.2,1.65-.05,3.27-2.42,4.85-3.8,3.14-2.74,4.33-2.44,6.4,2.05-.88,0-1.61.12-2.27-.04-.57-.13-1.06-.57-2.25-1.26-5.51,8.48-11.31,16.52-16.07,25.13-2.66,4.82-3.26,10.73-5.44,15.88-1,2.37-3.54,4.08-5.38,6.1-.45-.37-.9-.74-1.35-1.11,6.63-13.73,13.25-27.46,19.53-40.48-10.08,2.13-12.96,2.39-16.72,12.87-1.94,5.41-4.81,10.5-7.43,15.64-.68,1.33-2.02,2.31-3.74,2.87,6.46-10.36,6.63-24.11,18-32.32Z"/><path class="b" d="m319.54,149.22c.33.5.9,1.37,2.18,3.32,1.41-4.3,2.5-7.66,3.6-11.02-.43-.18-.87-.35-1.3-.53-4.45,2.11-8.85,4.36-13.41,6.2-1.02.41-2.62-.64-5.21-1.36,9.31-3.82,17.26-7.09,25.85-10.62-2.54,6.58-5.19,13.42-7.83,20.27-.46-.38-.92-.76-1.38-1.14-1.03,0-2.67-.42-3.01.06-6.82,9.74-13.93,19.32-20.04,29.49-4.33,7.22-.14,13.31,8.47,13.65,2.87.11,5.75.02,8.61.02-1.06,2.06-7.32,3.62-13.06,1.67-4.28-1.46-7.86-4.96-11.47-7.37,7.37-16.14,15.11-31.04,28-42.66Z"/><path class="b" d="m320.29,245.5c6.18-1.48,6.06-8.15,9.59-11.9,2.15-2.29,3-5.99,3.93-9.2,1.14-3.92,9.59-11.2,14.5-11.33-11.97,5.4-12.13,19.02-19.84,27.2,1.86,4.39,4.45,4.4,8.66,3.48,5.05-1.11,10.53-.26,15.83-.26.07.68.15,1.36.22,2.04l-14.71,2.66c.11.28.21.56.32.84-2.12-.11-4.24-.21-6.81-.34v-2.89c-4.39,2.42-7.13,5.18-8.64,9.75-1.67,5.04-4.1,9.87-6.66,14.54-2.25,4.12-6.13,4-10.41,2.83,1.55-4.2,4.24-3.8,7.19-2.3,1.78-2.38,3.42-4.58,5.52-7.41h-5.16c3.06-3.73,5.76-7.03,8.8-10.74-2.44-.8-4.42-1.45-6.83-2.24,1.91-1.66,3.22-2.8,4.52-3.93-.01-.26-.03-.53-.04-.79Z"/><path class="b" d="m344.71,268.74c1.25-.88,2.32-1.63,3.65-2.56-1.19-.75-2.13-1.34-3.54-2.23,1.01-.38,1.46-.72,1.78-.63.58.17,1.3.47,1.59.94,6.17,10.1,12.56,20.02,10.48,32.93-.63,3.92,1.69,8.31,1.1,12.25-1.34,8.87-3.62,17.61-5.69,26.36-.15.62-1.69.91-2.59,1.36-.19-.91-.72-1.91-.5-2.71,1.45-5.13,3.98-9.77,3.51-15.63-.61-7.6.2-15.33.64-22.99.35-6.03-4.41-19.33-10.42-27.08Z"/><path class="b" d="m236.69,48.61c-5.54-7.93.59-14.9-.57-21.86-2.38-.24-4.59-.46-7.05-.71-1.72,3.39-3.59,6.83-5.2,10.38-.58,1.29-.56,2.85-.81,4.29,1.35-.39,2.68-.84,4.05-1.13.59-.13,1.24.07,2.51.18-2.73,5.46-7.14,3.22-11.17,3.73-.54-7.48,5.04-11.86,8.11-17.31-.51-.36-1.01-.72-1.52-1.08-1.3,1.62-2.59,3.23-4.65,5.8-.35-1.5-1.23-3-.83-3.98.8-2,.95-5.88,4.48-4.34,4.64,2.03,5.14-.7,6.36-3.9,1.52-3.99,3.72-7.71,5.51-11.6.27-.6-.18-1.49-.05-2.2.24-1.42.59-2.84,1.09-4.18.05-.13,2.03.08,2.11.4.44,1.7,1.27,3.81.65,5.17-1.81,3.96-4.05,7.77-6.49,11.39-2.11,3.13-.02,4.71,1.95,6.08,1.7,1.18,3.74,2.04,5.26-.87.69-1.33,2.39-2.14,3.77-3.31,2.03,1.21,3.96,2.37,6.04,3.61-2.73.8-6.34.78-7.77,2.54-2.17,2.67-3.2,6.48-4.04,9.96-.93,3.84-1.1,7.87-1.74,12.97Z"/><path class="b" d="m313.57,25.91c-3.76,11.32-6.81,21.76-10.86,31.79-.93,2.31-5.15,3.85-8.14,4.6-2.55.64-5.52-.38-8.3-.66-.05-.83-.11-1.65-.16-2.48,2.74-.54,5.85-2.18,8.13-1.4,4.77,1.64,6.67-1.13,7.92-4.24,2.06-5.11,3.4-10.52,4.99-15.81,1.07-3.58,2.05-7.2,3.2-11.29-3.58.44-6.71.83-9.85,1.22-.12-.43-.23-.87-.35-1.3,1.75-.86,3.55-2.52,5.25-2.43,5.85.3,7.54-3.53,8.99-7.92,1.68-5.09,4.74-9.17,9.64-11.35,1.3-.58,3.52.45,5.1,1.21.59.29.55,1.89.96,3.56-5.31-2.44-9.57-.45-11.8,4.62-1.22,2.77-2.35,5.58-3.96,9.41,3.63,0,6.81-.33,9.88.1,2.65.37,6.32-1.85,8.05,2.38h-18.7Z"/><path class="b" d="m204.43,19.2c-.96,2.8-1.46,5.65-2.84,7.98-3.29,5.55-7,10.86-10.53,16.27-1.61,2.46-3.27,1.86-4.99.14-3.2,3.45-6.41.16-9.43-.34-2.11-.35-3.83-2.8-5.81-4.19-1.09-.77-2.97-.98-3.44-1.96-1.59-3.26-2.2-6.69,2.05-8.66,3.88-1.81,7.79-3.59,11.8-5.08.78-.29,2.61.58,3.01,1.38.41.84.07,2.69-.63,3.32-2.65,2.37-5.72,3.88-9.51,2.93-1.09-.27-2.27-.22-3.4-.31-.1,1.35-.81,3.3-.18,3.95,2.4,2.5,4.91,5.4,7.98,6.63,5.62,2.26,14.99-3.38,16.54-9.33.72-2.76,1.11-5.61,1.69-8.42.78-3.78,3.44-4.68,7.71-4.31Z"/><path class="b" d="m232.49,197.3c-2.49,6.05-8.7,8.42-14.04,5.1-1.09-.68-2.18-2.67-2-3.86,1.28-8.36,9.55-13.99,17.86-12.56.56,2.89.65,5.93,1.78,8.52,1.84,4.22,6.59,3.15,9.21,2.42,6.13-1.72,11.12-6.11,13.77-11.95,1.45-3.2,2.78-4.01,5.63-3.18-4.35,7.06-8.67,14.08-12.99,21.1.43.34.87.68,1.3,1.02-1.6.55-3.19,1.09-6.28,2.15,1.95-3.78,3.24-6.28,4.28-8.3-3.83.61-7.64,1.59-11.47,1.67-2.38.05-4.79-1.28-7.2-1.98-.79-3.11-1.57-6.23-2.44-9.69-6.09,1.45-8.46,5.89-10.61,10.55,3.37,3.18,6.38,4.57,9.63.23.62-.83,2.35-.84,3.58-1.22Z"/><path class="b" d="m95.49,325.61c.78-1.13,1.52-2.28,2.35-3.37,1.41-1.83,3.32-3.42,4.23-5.46,4.25-9.48,8.24-19.09,12.32-28.65-.39-.27-.78-.53-1.18-.8-2.46,3.4-4.92,6.81-7.82,10.81-1.75-7.55,4.99-9.67,6.87-15.28-2.94,1.84-6.41,3.19-8.66,5.65-2.12,2.33-2.95,5.84-4.53,9.23-2.27-6.77-.72-10.85,6.5-14.01,6.3-2.75,13.09-4.55,19.81-6.12,4.76-1.11,9.77-1.14,14.67-1.64.09.53.19,1.06.28,1.59-2.85.65-5.69,1.4-8.57,1.94-3.97.74-8.14.83-11.88,2.18-1.86.67-4.1,3.49-4.15,5.39-.26,9.06-5.53,16.12-8.76,23.97-1.35,3.28-2.71,6.71-4.84,9.47-1.64,2.13-4.51,3.31-6.83,4.91l.17.18Z"/><path class="b" d="m179.02,187.15c-2.91,6.4-5.29,12-8.05,17.4-.64,1.26-2.52,2.04-3.99,2.63-.6.24-1.64-.59-2.48-.93.35-.85.55-1.79,1.07-2.53,2.89-4.12,5.84-8.19,9.35-13.07-4.23.75-7.62.76-10.39,2.06-1.56.73-2.02,3.67-3.13,5.51-1.94,3.19-3.93,6.35-6.09,9.39-.33.46-1.65.23-2.51.31.15-.87.29-1.74.44-2.61-6.78-1.42-8.07-4.22-4.19-10.04,1.86-2.79,3.97-5.49,6.4-7.78,1.15-1.09,3.32-1.08,4.99-1.66,2.68-.93,3.36.16,3.55,2.72.03.38,3.53.89,5.35.67,3.19-.4,6.31-1.32,9.7-2.07Zm-25.44,3.82c-1.46,3.56-2.7,6.58-3.94,9.6.4.55.79,1.09,1.19,1.64,2.2-.53,5.28-.33,6.43-1.72,3.07-3.71.27-6.48-3.68-9.51Z"/><path class="b" d="m119.28,83.56c1.66-1.17,3.31-2.35,4.97-3.51,2.43-1.71,4.54-4.28,7.85-.89.91.93,3.5.22,5.33.24,1.83.02,3.67,0,5.57,0-.33,2.63-.59,4.65-.74,5.83,4.15-1.48,8.26-2.94,12.37-4.41.3.66.59,1.32.89,1.97-1.24.63-2.44,1.7-3.72,1.8-7.68.64-7.64,2.48-10.64,9.4-1.01,2.33-2.15,4.61-3.23,6.91-.71-.29-1.42-.57-2.13-.86,1.17-6.05,2.33-12.09,3.62-18.75-2.39.83-4.16,1.94-5.94,1.95-4.31.03-4.14,2.09-3.47,5.39.64,3.16,1.21,7.24-3.39,7.91-2.57.37-5.7-.42-7.94-1.75-1.05-.62-.88-3.8-.73-5.78.14-1.91.97-3.77,1.5-5.65l-.18.18Zm-.05,9.23c3.1.53,5.03.86,6.95,1.2v-11.16l-1.68-.42c-1.54,3.04-3.08,6.07-5.27,10.39Z"/><path class="b" d="m28.92,45.34c5.29-.19,6.69-4.97,8.97-8.24,1.91-2.75,2.03-6.67,3.55-9.77,1.24-2.53,3.48-4.56,5.1-6.94,3.75-5.5,7.07-11.34,11.24-16.49,1.66-2.05,5.11-2.64,7.74-3.9.38.38.75.75,1.13,1.13-1.28,2.54-2.55,5.07-3.83,7.61-.52-.21-1.05-.42-1.57-.63.44-1.44.87-2.89,1.31-4.33-.34-.23-.68-.46-1.03-.69-4.39,6.81-8.78,13.62-13.61,21.11,2.77-.4,4.76-.68,6.88-.99,1.28-3.93,2.45-7.82,3.87-11.62.29-.78,1.53-1.21,2.34-1.8,0,.91.16,1.86-.04,2.72-.32,1.42-.76,2.84-1.35,4.16-1.33,2.95-2.47,5.78,1.72,8.25-1.45.28-2.9.55-4.67.89-.96,4.31-1.97,8.83-2.98,13.36-.59-.09-1.18-.19-1.76-.28.55-4.15,1.11-8.3,1.65-12.4-7.02.19-10.48,3.14-13.45,11.62-2.05,5.87-6.26,8.51-11.36,7.13l.16.09Z"/><path class="b" d="m169.98,132.53c-.3.85-.74,2.47-.87,2.45-5.45-1.06-6.36,3.93-8.98,6.61-.79.81-1.64,1.57-2.4,2.29.6,1.64,1.19,3.25,1.86,5.08-4.66-.24-5.59-1.36-4.25-4.71,1.46-3.65,3.05-7.25,4.5-10.67-5.38.46-10.17.66-14.86,1.43-.94.16-2.09,2.48-2.13,3.84-.07,2.22,1.48,4.69.94,6.66-.98,3.59-7.48,5.55-10.78,3.81-2.82-1.5-4.28-8.69-1.64-11.23,3.29-3.18,7.33-5.58,11.08-8.27.33-.24,1.14-.32,1.37-.1,5.96,5.73,11.75.9,17.97-.31.28,1.37.56,2.74.89,4.38,2.39-.38,4.83-.78,7.27-1.17l.02-.1Zm-31.4,15.62c5.62-5.49-.09-8.9-.02-14.39-2.36,2.98-4.02,5.09-6.38,8.06,1.81,1.79,4.02,3.97,6.4,6.33Z"/><path class="b" d="m98.92,21.1c-3.83,6.59-9.32,12.31-10.16,20.48-.11,1.09-2.15,1.97-3.34,2.99-9.51-8.07-1.94-14.17,2.16-21.75-4.9.91-9.16,1.32-13.12,2.63-1.63.54-3.26,2.85-3.76,4.66-1.44,5.24-2.2,10.67-3.5,15.95-.18.74-1.94,1.09-2.96,1.62-.32-1.24-1.19-2.67-.86-3.7,2.46-7.44,5.16-14.8,7.64-21.77,7.2-.93,14.55-1.89,21.36-2.77-3.07,6.14-6.13,12.08-8.92,18.15-.22.47,1.46,1.81,2.38,2.89,2.97-6.5,5.62-12.65,8.63-18.62.56-1.12,2.55-1.51,3.88-2.24.19.5.37,1,.56,1.49Z"/><path class="b" d="m153.64,261.48c-3.21,0-6.44-.19-9.63.05-4.14.31-8.31.71-12.36,1.55-5.99,1.25-8.63-.96-7.34-6.91.77-3.55,2.06-7,3.14-10.54-1.23.64-2.6,1.35-3.97,2.06-.32-.46-.65-.93-.97-1.39,2.8-2.03,5.59-4.06,8.39-6.09.63.54,1.26,1.09,1.89,1.63-1.35,2.8-2.98,5.51-3.97,8.43-.86,2.53-1.18,5.3-1.34,7.98-.04.59,1.64,1.88,2.43,1.81,2.39-.21,4.73-.93,7.13-1.46-1.77-5.39,1.24-11.09,7.22-14,3.51-1.71,7.12-3.23,11.3-5.1-1.68,3.18-.47,7.44-6.65,6.58-2.58-.36-5.98,3.47-8.49,5.91-.45.44,1.16,4.37,2.61,5.09,3.28,1.63,7.05,2.25,10.61,3.28,0,.37,0,.74,0,1.11Z"/><path class="b" d="m119.46,83.38c-7.54,1.39-10.75,5.14-12.62,12.24-.72,2.74-3.62,5.42-6.22,7.04-3.92,2.44-8.38,4.04-12.73,5.7-.91.35-2.3-.55-3.47-.87-.07-.46-.15-.91-.22-1.37,2.15-.88,4.51-2.85,6.4-2.46,7.59,1.54,10.07-4.47,13.37-8.73,2.11-2.72,2.79-6.54,4.46-10.72-3.08.29-5.52-.13-7.18.81-4.36,2.48-3.97-.14-3.82-3.66,2.98,0,6.18-.75,8.77.19,3.28,1.19,3.7-.82,4.51-2.64,2.39-5.38,4.09-11.17,7.19-16.1,1.74-2.76,5.68-4.16,8.72-6.01.27-.17,1.24.81,2.57,1.72-12.18,3.2-12.7,14.01-16.44,21.71,2.43,1.24,4.47,2.28,6.51,3.32,0,0,.18-.18.18-.18Z"/><path class="b" d="m243.1,326.9c-2.87-.72-5.16-1.68-7.5-1.83-11.8-.75-14.3-3.09-15.12-14.15,3.29-1.65,6.56-2.92,9.42-4.81,4.05-2.67,6.7-1.31,9.7,3.4-4.7,2.31-9.3,4.57-14.91,7.32,1.72,1.56,3.22,3.7,5.27,4.6,2.48,1.09,5.44,1.52,8.17,1.47,1.82-.03,4.3-.9,5.29-2.26,3.41-4.66,8.41-8.39,9.04-14.88.12-1.2,2.03-2.34,3.3-3.23.35-.24,2.06.68,2.03.8-.36,1.5-.65,3.14-1.49,4.38-4.38,6.53-8.91,12.95-13.23,19.16Zm-7.54-17.71c-.32-.76-.64-1.52-.96-2.28-3.13,1.39-6.26,2.78-9.39,4.17.26.6.51,1.2.77,1.79,3.19-1.23,6.39-2.45,9.58-3.68Z"/><path class="b" d="m252.04,257.14c2.49-1.73,3.97-2.77,6-4.18-2.34,7.3-8.58,11.24-11.7,8.1,3.3-4.58,6.59-9.16,10.06-13.98-5.53,1.25-10.75,2.44-14.61,3.31,0,2.94.79,5.52-.16,6.91-2.19,3.23-6.08,3.91-8.97,1.51-1.58-1.31-2.77-5.73-1.82-6.95,3.36-4.32,7.72-7.86,12.45-12.43,1.33,2.77,1.97,4.1,2.73,5.7-2.62.28-4.63.49-6.65.71l.33,1.94c7-1.2,14-2.4,21.95-3.76-3.19,4.35-6.05,8.24-9.61,13.11Zm-15.97-7.86c-1.11,2.15-4.31,4.21-.89,6.91,1.08.86,3.29.28,5.49.39-1.95-3.1-3.22-5.11-4.6-7.3Z"/><path class="b" d="m129.53,182.41c-1.74,1.37-3.48,2.74-5.22,4.11l.46.71c5.08-.8,10.15-1.61,16.09-2.55-.69,1.54-.93,2.77-1.66,3.54-1.48,1.58-3.22,2.91-4.85,4.35,1.85,2.02,3.69,4.03,5.99,6.54-1.59,2.55-5.67.38-6.28-.76-1.56-2.93-1.68-6.61-2.48-10.47-2.63,1.13-7.6,1.84-9.99,4.7-2.45,2.94-2.39,7.99-3.42,12.12-4.12-1.33-4.15-5.03.23-11.87-.79,0-1.34-.06-1.87.01-.93.12-1.85.33-2.77.5.31-.97.48-2.72.94-2.8,7.72-1.31,8.72-8.74,12.53-13.56,1.46-1.85,2.83-3.77,5.26-7.01-.68,5.24-1.18,9.11-1.69,12.99-.42-.18-.85-.36-1.27-.54Z"/><path class="b" d="m356.38,253.84c.26-3.77,0-7.02.79-10,2.79-10.6,1.34-21.14-.41-31.58-.67-4-3.27-7.65-4.47-11.61-.44-1.46.59-3.37.95-5.07.85,1.19,1.77,2.34,2.54,3.59,4.08,6.65,5.95,13.98,6.61,21.68.8,9.38,1.29,18.69-2.95,27.56-.65,1.36-.58,3.07-.92,4.59-.04.18-.57.25-2.13.86Z"/><path class="b" d="m20.92,81.76c-1.11,1.83-2.22,3.67-3.46,5.73,2.04,4.89,5.99,6.35,12.79,4.45,2.04-.57,4.08-1.19,6.17-1.51,3.65-.55,5.99-2.61,7.87-5.68,3.14-5.12,7.29-6.14,14.29-2.93-3.6.72-6.15,1.22-8.28,1.64.41,3.12,1.14,6.01,1.02,8.86-.05,1.22-1.63,2.91-2.91,3.44-3.95,1.65-6.8.04-8.09-2.94-6.82.79-13.42,2.41-19.92,2.07-6.44-.34-7.57-3.72-4.37-9.56.91-1.66,2.35-3.02,3.54-4.51.45.31.9.63,1.36.94Zm23.54,11.91c5.62-.83,6.03-2.73,1.29-8.86-.4,2.79-.81,5.57-1.29,8.86Z"/><path class="b" d="m110.83,245.82c5.16-8.4,10.28-16.82,15.49-25.18,1.26-2.02,2.82-3.85,4.46-6.06,2.39,2.79,4.41,5.14,6.8,7.92-1.53.54-2.26,1.08-2.68.9-5.66-2.43-7.55,1.18-9.79,5.39-3.6,6.78-7.89,13.2-11.72,19.87-.76,1.33-1.18,3.14-1.02,4.64.21,1.93-.23,4.91,3.88,3.44,1.4-.5,3.7,1.53,5.3,2.98-5.36.27-11.04,1.73-13.68-4.07,1.03-3.33,2.07-6.67,3.1-10.01,0,0-.14.17-.14.17Z"/><path class="b" d="m293.89,336.85c1.11-2.11,2.14-4.26,3.35-6.31,2.57-4.36.59-9.08,1.17-13.6.58-4.52,1.6-8.75,5.56-11.68.63-.47.84-1.5,1.24-2.27.45.18.89.35,1.34.53-1.61,3.77-3.22,7.53-4.83,11.3.53.33,1.07.66,1.6.99,2.63-3.26,5.01-6.77,7.96-9.71,2.95-2.95,6.21-6.14,11.74-3.69-10.77,2.9-15.2,10.89-18.89,19.88-2.2,5.37-5.44,10.32-8.21,15.46-.68-.3-1.36-.6-2.04-.91Z"/><path class="b" d="m183.16,64.58c-9.8,2.32-10.42,11.52-15.94,17.75h12.78c.17.54.33,1.08.5,1.61-10.3-.47-18.9,1.8-22.41,12.98,1.53.38,2.82.69,4.12,1.01l.2,1.64c-1.88.3-3.91,1.11-5.58.65-.71-.2-1.33-3.28-.86-4.67.94-2.76,2.66-5.25,4.27-8.26-1.62.22-3.07.42-5.64.78,1.2-1.42,1.67-2.51,2.22-2.54,8.02-.53,10.12-7.23,13.45-12.68,1.79-2.92,3.66-5.79,5.58-8.63,2.09-3.1,4.21-2.01,7.33.36Z"/><path class="b" d="m70.61,85.9c2.42-2.59,5.12-5.49,7.83-8.39.35.12.7.25,1.05.37-.1,1.85-.2,3.7-.29,5.35,2.29-1.32,4.86-2.8,7.28-4.19-.63,4.36-2.63,8.75-1.24,11.27,1.36,2.47,6.18,3.05,9.49,5.7-3.83-.43-7.97-.11-11.43-1.49-4.44-1.77-3.31-6.07-1.89-10.06-8.17,1.1-6.6,12.01-14.04,13.54-1.54-5.04,6.9-6.56,3.25-12.09Z"/><path class="b" d="m278.15,32.65c.57-4.4,9.42-12.76,13.46-12.09,1.92.32,4.03.71,3.2,4.12-1.2,4.9-.94,10.22-2.52,14.95-.61,1.84-4.44,3.17-6.99,3.57-1.2.19-3.18-2.13-4.18-3.71-1.32-2.08-2.01-4.55-2.98-6.85Zm10.97-8.22c-7.57,4.48-7.53,8.31-4.94,13.82,1.59,3.38,4.8,2.45,5.3.98,1.11-3.29.9-7.07.94-10.65.02-1.29-.79-2.58-1.31-4.14Z"/><path class="b" d="m320.29,245.5c.01.26.03.53.04.79h-8.96c1.63,8.02.36,11.75-4.4,14.96-4.12,2.77-7.2-.23-10.06-2.12-1.13-.74-1.25-4.02-.81-5.91,1.21-5.22,4.65-8.92,9.57-10.97,1.36-.57,3.13-.46,4.66-.25,1.84.26,3.65.87,5.42,1.5,1.56.55,3.03,1.33,4.54,2.01Zm-13.73-.5c-5.1,2.43-8.23,6.84-7.41,10.4,1.04,4.56,4.2,4.33,7.16,3.85,3.36-4.95,3.38-9.67.25-14.26Z"/><path class="b" d="m46.49,251.43c.12,3.98-.15,7.57-4.95,8.4-3.8.65-7.04-2.17-6.03-5.73,1.58-5.5,3.63-10.86,4.99-16.41.63-2.58.11-5.44.11-8.29-10.29,2.03-6.8,10.15-8.82,15.93-.72-.23-1.85-.28-2.03-.71-1.77-4.33,3.16-15.31,7.61-16.57,1.45-.41,3.79-.14,4.75.81,1.14,1.12,1.98,3.49,1.63,5-1.4,5.96-3.53,11.74-4.94,17.7-.41,1.75.65,3.85,1.04,5.79,1.54-1,3.18-1.87,4.58-3.03.88-.74,1.39-1.92,2.07-2.9Z"/><path class="b" d="m112.16,20.72c-2.96,4.61-6.05,9.11-8.72,13.84-.64,1.14.12,3.06.24,4.63,1.85-.55,4.52-.51,5.4-1.75,2.44-3.45,4.11-7.45,6.15-11.2.74-1.36,1.66-2.62,2.5-3.93.53.07,1.06.15,1.59.22,0,1.67.63,4.4-.1,4.84-5.08,3.05-2.96,6.92-1.72,10.76.19.58.56,1.09.85,1.64-.36.36-.71.72-1.07,1.08-1.3-1.24-2.6-2.48-4.39-4.2-2.2,6.03-7.12,6.6-12.66,5.57-.77-10.45,6.27-22.32,11.95-21.5Z"/><path class="b" d="m186.32,314.57c-2.35,2.13-4.44,4.69-7.11,6.26-2.35,1.37-5.34,2.1-8.08,2.2-1.57.06-4.35-1.47-4.59-2.67-.44-2.29.09-5.06,1.07-7.24,1.04-2.31,3.09-4.17,4.75-6.29-1.48-.81-2.68-1.46-4.22-2.3,5.94-1.06,11.32-2.01,16.69-2.97.36.47.72.93,1.08,1.4-5.86,2.53,3.89,7.02-2.33,9.97-.33-1.36-.53-2.42-.85-3.43-1.18-3.71-4.22-4.83-6.77-2.14-3.05,3.22-5.62,6.9-8.69,10.74,8.48,3.93,13.49-.54,18.4-5.36.22.61.43,1.22.65,1.84Z"/><path class="b" d="m206.1,313.11c-.88-2.05-1.75-4.08-2.81-6.54-2.76,1.41-6.65,1.39-5.91,5.79.76,4.56,4.74,5.67,8.52,6.02,4.37.4,8.8.09,13.64.09-3.99,3.82-9.08,3.45-13.46,2.74-4.34-.7-8.36-3.33-12.34-5.04-.42-8.45,4.39-11.43,11.14-13.27,1.42-.39,4.07,1.46,5.25,2.97,1.72,2.21.3,3.39-2.26,3.89-.72.14-1.11,2.02-1.77,3.34Z"/><path class="b" d="m260.71,309.77c5.19,4.58-1.93,7.49-1.33,10.76h9.86c.07.54.14,1.09.22,1.63-4.84,1.48-9.68,2.96-15.99,4.89,1.7-3.89,2.78-6.37,3.98-9.11-2.69-3.08,1.06-10.56,10.35-17.9-1.66,4.53-2.87,7.85-4.21,11.52-1.19-.74-2.03-1.26-2.88-1.79Z"/><path class="b" d="m274.46,354.12c3.99-2.27,7.83-3.83,10.88-6.36,3.06-2.54,5.33-6.03,8.48-9.73.31,1.06,1.11,2.25.79,2.91-3.96,8.31-16.54,15.61-25.56,14.83-1.41-.12-3.5-.72-3.91-1.68-.43-1.01.39-3.14,1.36-4.02,1.37-1.24,3.31-2.1,5.14-2.5,1.26-.27,2.74.52,4.13.83-.35,1.52-.69,3.04-1.3,5.71Z"/><path class="b" d="m56.06,58.75c.8,3.14.9,6.73,1.93,7.02,3.4.94,7.36,1.59,10.67.71,6.17-1.64,8.91-7.31,11.58-12.58,1.37-2.71,2.38-5.62,3.55-8.44.51.18,1.01.36,1.52.53-.63,1.66-1.06,3.43-1.92,4.95-2.96,5.23-5.7,10.63-9.23,15.46-3.03,4.14-14.23,6.09-19.2,1.85-1.15-.98-1.49-3.48-1.35-5.22.11-1.39,1.49-2.69,2.45-4.28Z"/><path class="b" d="m63.6,138.77c-1.36-1.02-3.3-2.46-5.5-4.1,2.62-3.06,4.64-5.4,6.89-8.03-3.71-2.02-4.48-4.51-1.75-7.63,3.93-4.48,8.11-5.52,12.17-2.43,1.06.8.93,3.17,1.43,5.17-3.39-1.78-5.73-3.95-7.96-3.83-1.43.07-2.69,3.51-3.76,5.07.42.92.47,1.08.56,1.21,1.3,1.93,5.93-2.04,5.15,2.55-.25,1.45-4.48,1.88-5.59,3.61-1.25,1.94-1.03,4.83-1.63,8.41Z"/><path class="b" d="m112.89,201.96c-6.37,2.66-18.11.67-20.98-3.45-2.22-3.18.96-5.4,2.52-7.71,1.27-1.89,2.75-3.69,4.39-5.26.98-.93,2.61-2.04,3.67-1.8,1.09.25,2.38,1.95,2.54,3.15.1.71-1.72,1.83-2.83,2.54-1.23.78-2.83,1.06-3.89,1.98-1.19,1.05-2.5,2.5-2.72,3.93-.13.88,1.5,2.67,2.65,2.99,3.56,1,7.27,1.46,10.91,2.22,1.06.22,2.06.76,3.74,1.4Z"/><path class="b" d="m292.68,319.98c-7.53,5.48-16.11,1.37-16.6-6.77-.2-3.38,6.93-10.85,10.31-10.57.98.08,2.47.93,2.68,1.71.29,1.07-.07,2.72-.79,3.56-.77.89-2.37,1.67-3.49,1.54-4.12-.49-6.04,1.1-5.4,5.18.55,3.5,4.55,5.94,7.89,5.39,1.75-.29,3.59-.05,5.39-.05Z"/><path class="b" d="m275.42,148.9c.19-3.2.43-6.4.56-9.6.23-5.42,3.05-9.42,7.88-10.93.86-.27,2.43-.51,2.62-.17.48.87.75,2.2.42,3.1-.6,1.65-1.5,3.27-2.61,4.62-2.72,3.31-7.58,5.52-5.19,11.3.2.48-1.64,1.8-2.53,2.72-.39-.35-.78-.7-1.17-1.05Z"/><path class="b" d="m23.69,140.93c1.56-1.16,3.13-2.31,4.69-3.47.2.33.41.66.61.98l-12.17,13.64c-.49-.41-.99-.82-1.48-1.23,2.23-3.92,4.51-7.8,6.65-11.76,1.1-2.05,2.66-4.27-.85-5.88-.35-.16-.23-2.72.44-3.39.96-.96,2.59-1.42,4.01-1.67,1.28-.23,2.67.11,4.01.19-.43,1.29-.67,2.68-1.33,3.84-1.63,2.85-3.44,5.59-5.18,8.38.2.12.4.24.6.36Z"/><path class="b" d="m57.19,81.3c4.15-2.99,10.2.6,11.27-6.1,1.01,6.2-2.25,10-5.23,14.03-1.44,1.95-4.57,2.87-2.45,7.15,1.43,2.88-2.67,4.59-6.66,4.23,2.85-6.08,5.52-11.78,8.29-17.71-1.37-.42-2.69-.83-5.22-1.6Z"/><path class="b" d="m110.97,245.65c-2.79,1.35-6.8-1.39-8.81,2.54-1.76,3.44-3.42,6.94-5,10.15,3.83,4.82,6.36.44,9.22-1.2l.69,1.02c-1.35,1.52-2.45,3.82-4.12,4.35-1.97.63-5.57.51-6.4-.7-1.17-1.69-1.38-5.27-.32-7.02,2.7-4.48,6.22-8.5,9.69-12.47.8-.91,2.71-.86,4.11-1.25.27,1.58.54,3.16.81,4.74,0,0,.13-.16.13-.16Z"/><path class="b" d="m270.52,241.84c-1.08,3.56-2.76,7.07-3.08,10.7-.35,3.96,2.91,5.89,7.09,5.38,1.9-.24,3.88.14,6.34.26-3.36,4.91-7.8,3.88-11.1,2.84-4.63-1.46-7.34-6.36-6.74-10.69.47-3.41,4.32-6.36,6.67-9.51.28.34.55.69.83,1.03Z"/><path class="b" d="m93.42,147.04c-1.37,5.9-5.99,7.7-9.7,5.44-1.49,1.82-2.75,3.36-4.02,4.9-.53-.65-1.07-1.29-1.6-1.94-1.91-1.39-3.81-2.78-6.46-4.71,5.19-1.22,8.07-6.81,15.3-5.24-2.39,1.57-3.67,2.41-5.08,3.33,4.57,4.03,7.8-.34,11.55-1.79Z"/><path class="b" d="m169.96,132.63c4.51-1.32,9.02-2.65,15.26-4.48-2.61,4.3-4.34,7.78-6.68,10.78-1.69,2.17-3.31,3.83-3.3,7.01.02,3.49-3.99,4.78-6.83,2.65,3.69-5.25,7.38-10.51,11.98-17.07-4.33,1.74-7.38,5.36-10.41,1.03,0-.02-.02.09-.02.09Z"/><path class="b" d="m137.84,17.76c-.34,11.07-9.87,17.57-13.73,26.89-.27.66-2.32.57-5,1.15,4.31-5.78,7.53-10.3,10.97-14.66,3.24-4.1,1.63-10.9,7.77-13.37Z"/><path class="b" d="m153.4,299.01c-.31.78-.54,1.61-.94,2.34-3.38,6.09-6.7,12.2-10.22,18.2-1.61,2.74-1.69,7.7-7.74,5.48,1.66-2.78,3.32-5.45,4.86-8.19,2.58-4.63,4.88-9.43,7.71-13.91,1.24-1.96,3.48-3.27,5.27-4.88.36.32.72.63,1.09.95Z"/><path class="b" d="m63.08,260.37c2.41-2.39,4.67-3.96,6.02-6.11,2.99-4.74,5.56-9.76,8.23-14.7.79-1.46,1.31-3.06,1.96-4.6.91.78,1.81,1.56,2.72,2.34-3.15,5.11-6.38,10.17-9.4,15.35-1.05,1.8-1.37,4.03-2.45,5.8-1.11,1.83-2.75,3.34-4.15,4.98-1.15-1.22-2.31-2.43-2.92-3.07Z"/><path class="b" d="m340.3,96.34c-1.71.17-3.45.6-5.13.46-10.2-.83-20.47-3.53-30.35,1.75-.3-.4-.6-.8-.9-1.2,1.18-.97,2.3-2.66,3.56-2.77,6.81-.6,13.66-1.01,20.5-1.07,4.04-.04,8.09.7,12.14,1.08.06.58.12,1.17.18,1.75Z"/><path class="b" d="m126.25,299.64c-1.39,2.81-2.8,5.61-4.15,8.45-2.46,5.16-4.76,10.4-7.43,15.45-.38.73-2.44.57-3.72.83.25-1,.34-2.08.78-2.99,2.29-4.85,6.79-8.58,7.35-14.33.11-1.18-.28-2.79.35-3.45,1.85-1.96,4.09-3.54,6.18-5.27.21.44.43.88.64,1.31Z"/><path class="b" d="m150.36,17.97c-2.14,8.35-13.05,22.98-17.26,23.8,5.93-7.82,9.95-17,17.26-23.8Z"/><path class="b" d="m294.16,183.62c-1.34,1.51-1.95,2.87-2.8,3.04-5.87,1.16-8.6,5.08-7.6,12.7,2.77-2.28,5.05-4.17,7.33-6.05.22.17.45.34.67.51-.53,1.06-.85,2.32-1.63,3.15-2.19,2.32-3.77,6.53-8.19,3.56-2.5-1.68-2.22-6.98.35-10.17,4.27-5.3,5.36-5.99,11.87-6.74Z"/><path class="b" d="m160.75,295.92c3.63,5.32-1.65,7.29-2.73,10.49-1.24,3.68-3.14,7.15-4.86,10.95,3.05,1.13,4.92,1.82,6.79,2.51-.05.44-.11.89-.16,1.33-2.24-.15-5.45.53-6.47-.66-1.38-1.62-2.1-5.08-1.32-7.04,2.37-5.88,5.6-11.42,8.74-17.58Z"/><path class="b" d="m84.84,260.31c-6.19,1.4-9.25-1.65-7.93-5.86.93-2.95,2.4-5.72,3.6-8.58.78-1.85,1.27-3.87,2.33-5.54.86-1.34,2.37-2.27,3.6-3.38.41.38.82.77,1.23,1.15-2.11,3.48-4.71,6.77-6.2,10.5-1.56,3.9-4.33,8.56,3.38,11.71Z"/><path class="b" d="m28.08,146.68c2.59-4.41,5.19-8.82,7.78-13.22-.35-.25-.69-.5-1.04-.75-1.39.97-2.79,1.94-4.31,3-.18-.73-.38-1.21-.3-1.26,2.45-1.63,6.39-5.09,7.15-4.49,3.41,2.67.79,5.74-.82,8.71-1.93,3.56-4.27,6.57-7.04,9.26-.47-.41-.95-.83-1.42-1.24Z"/><path class="b" d="m28.15,316.55c5.22-8.01,10.44-16.02,15.7-24.01.2-.3.84-.29,1.86-.61-.24,1.19-.21,2.08-.58,2.75-3.61,6.6-7.13,13.26-11.07,19.66-.97,1.57-3.35,2.28-5.08,3.38-.28-.39-.56-.78-.84-1.17Z"/><path class="b" d="m121.8,131.55c.49,7.13-5.01,14.66,1.59,21.13-3.34,2.02-4.9-1.16-5.83-2.98-2.33-4.57.32-16.13,4.24-18.16Z"/><path class="b" d="m277.17,79.36q-5.24,13.13,2.61,19.06c-2.61-.51-6.17-.17-7.58-1.74-1.72-1.92-2.51-5.58-2.13-8.27.53-3.8,2.06-7.77,7.11-9.05Z"/><path class="b" d="m23.91,302.07c3.97-4.39,7.61-8.43,11.25-12.46.39,0,.77,0,1.16,0-.07,1.16.22,2.5-.26,3.46-1.45,2.89-3.11,5.67-4.85,8.4-.91,1.43-2.03,3.49-3.31,3.7-1.08.18-2.54-1.89-3.99-3.1Z"/><path class="b" d="m54.37,145.17c-3.57.16-7.4,1.16-10.59.14-1.76-.56-3.8-4.82-3.32-6.86.87-3.76,1.83-8.5,7.78-9.51-1.48,2.37-3.01,4.11-3.71,6.14-.7,2.03-1.5,5.01-.54,6.36,1.02,1.43,4.02,1.56,6.21,1.98,1.28.24,2.66-.07,3.99-.13.06.63.12,1.25.18,1.88Z"/><path class="b" d="m263.81,130.02c-1.45,3.58-3.48,6.6-3.77,9.78-.39,4.29,2.51,6.47,7.27,5.78.04.43.07.86.11,1.29-1.15.52-2.6,1.75-3.4,1.42-2.51-1.06-5.55-2.18-6.94-4.24-2.14-3.18,2.35-12.13,6.73-14.03Z"/><path class="b" d="m159.6,16.35c-2.54,6.76-11,12.33-3.24,20.05-2.69.89-8-3.23-6.99-5.53,2.19-4.96,5.04-9.63,7.72-14.36.16-.29,1.18-.1,2.52-.17Z"/><path class="b" d="m23.06,77.31c1.64-5.89,6.03-8.19,10.14-10.95,2.88-1.93,5.53-3.45,8.83-1.4.55.34,1.1,1.4.95,1.92-.17.59-1.35,1.49-1.72,1.34-7.31-2.92-10.23,3.15-14.29,6.87-.48.44-.94.93-1.49,1.27-.52.32-1.15.46-2.42.95Z"/><path class="b" d="m267.92,80.44c.34,9.25-7.38,12.69-9.18,19.19-.49-.04-.99-.08-1.48-.12,0-1.51-.6-3.43.11-4.45,2.27-3.29,6.72-5.22,5.56-10.55-.16-.75,2.53-2.12,4.99-4.06Z"/><path class="b" d="m190.04,201.54c-6.45-.83-8.77-4.74-8.37-8.71.26-2.65,3.9-4.97,6.03-7.43.47.36.93.72,1.4,1.08-.63,1.21-1.08,2.58-1.93,3.61-2.53,3.08-2.54,5.45,1.28,7.53.81.44.92,2.17,1.59,3.92Z"/><path class="b" d="m209.74,42.52c-8.39-3.24-8.3-13.11.2-21.08-.13,7.54-9.03,14.31-.2,21.08Z"/><path class="b" d="m132.34,299.26c.44,6.58-8.47,12.41-.61,18.47-.14.46-.27.93-.41,1.39-1.56-.59-3.74-.73-4.58-1.86-2.48-3.33,1.1-15.28,5.59-18Z"/><path class="b" d="m28.76,45.25c2.24,1.66,1.39,2.37-.8,2.86-6.84,1.52-12.84-.44-19.59-4.17,2.42-1.56,4-2.58,5.62-3.62,3.12,6.02,5.88,6.89,14.95,5.02-.01,0-.17-.09-.17-.09Z"/><path class="b" d="m64.24,242.37c-6.53.4-11.73.73-16.93,1.05-.02-.58-.05-1.16-.07-1.74,6.87-1.26,13.74-2.53,21.2-3.9-1.85,2.03-3.43,3.75-4.2,4.59Z"/><path class="b" d="m196.58,221.75c2-5.87,4.02-11.82,6.21-18.25.56.66,2.03,1.61,2.2,2.74.65,4.32-5.36,14.5-8.41,15.51Z"/><path class="b" d="m272.53,184.66c-7.28,6.14-4.8,10.41,2.87,13.69-.6.5-1.2,1.01-1.8,1.51-2.08-1.12-4.39-1.97-6.19-3.43-3.66-2.96-1.87-6.62-.37-9.81.59-1.26,2.59-1.86,3.95-2.76.51.26,1.02.53,1.53.79Z"/><path class="b" d="m193.69,129.25c-2.2,5.22-5.28,9.5-1.77,14.43.14.2-1.07,1.36-1.66,2.08-1.01-2.75-2.95-5.56-2.8-8.25.18-3.13.94-7.13,6.22-8.26Z"/><path class="b" d="m95.32,325.43c-1.65,1.48-3.3,2.96-4.87,4.38-8.13-6.29-8.2-6.61-1.73-10.01.29,2.11.54,3.96.79,5.8,1.94,0,3.96,0,5.98,0,0,0-.17-.18-.17-.18Z"/><path class="b" d="m152.71,226.42c.69,2.69,1.37,5.38,2.06,8.06-.59.36-1.18.72-1.77,1.08-1.52-1.67-3.51-3.14-4.35-5.1-.43-1.01,1.21-2.9,1.91-4.4.71.12,1.43.23,2.14.35Z"/><path class="b" d="m100.03,165.66c-3.8.28-6.61.8-9.34.52-.89-.09-1.56-2.26-2.34-3.47,1.25-.29,2.66-1.09,3.71-.75,2.39.76,4.59,2.08,7.96,3.7Z"/><path class="b" d="m27.22,308.28q-6.55,8.53-8.41,7.77c2.47-3.12,4.84-6.12,7.21-9.11.4.45.8.89,1.2,1.34Z"/><path class="b" d="m325.38,128.19c-1.15-1.58-2.5-3.06-3.38-4.78-.45-.88-.04-2.18-.02-3.3.98.18,2.49.02,2.85.59,1.19,1.9,1.96,4.05,2.9,6.11-.78.46-1.56.92-2.34,1.38Z"/><path class="b" d="m59.21,261.1c-4.74.08-5.29-1.87-1.34-9.05.47,3.2.86,5.82,1.34,9.05Z"/></g></svg>