<?xml version="1.0" encoding="UTF-8"?><svg id="a" xmlns="http://www.w3.org/2000/svg" viewBox="0 0 54 75"><defs><style>.b{fill:#fff;}.c{fill:#462200;}</style></defs><path class="b" d="m20.35,24.72c-7.74,2.66-22-1.61-9.04-6.37,2.74,2.54,5.24-3.8,2.52-4.26C5.22,11.47-2.59,31.34,4.66,34.9c8.52,4.17,10.12,3.2,5.02-3.84-1.55-2.5,8.67-1.01,10.12-2.11,3.96,5.71-2.92,12.39-2.44,18.56.57,3.99-7.13-.39-6.32,3.52.31,3.3,3.49-.94,6.04,1.33,3.11,18.01-11.93,4.94-12.5,16.08,3.03,10.36,13.16-7.04,13.4-11.13.46-7.55,8.17-7.82,14.49-8.67,6.72-4.34-17.61,4.56-9.79-9.43-.29-26.5,30.93,8.7,29.15-21.04-1.78-2.71-11.56-.66-6.4,3.2,5.33-2.14,4.1,4.78,1.69,7.14-1.2,2.14-4.76-1.32-5.38-2.6-2.55-5.88-19.4,3.1-15.15-4.46-1.24-5.11,4.9-10.83,6.74-15.82,5.06,1.64,7.4,8.24,2.44,11.64-2.74.8-5.76,6.39-.73,3.98,18.68-23.43-7.41-25.65-14.67,3.47Zm2.26-11.38c-5.79-2.6-2.99,12-1.32,5.96-1.2-1.81.29-4.29,1.32-5.96Z"/><path class="c" d="m20.35,24.72c7.27-29.11,32.95-25.94,14.68-3.47-3.54,4.36-1.98-3.22.73-3.98,4.95-3.39,3.14-14.96-.14-11.62-5.11,5.21-7.73,10.35-9.05,15.8-1.69,7.01,8.82.54,12.64,2.66,7.9,4.4,14.78-1.9,5.5-6.16-5.85-2.68,2.28-2.72,4.63,1.15,12.04,19.88-19.21-5.33-26.67,20.11-3.55,12.08,16.48,5.06,9.79,9.44-6.32.84-12.3-1.66-12.77,5.89.14,5.19-14.9,25.89-15.06,11.81,4.89-7.53,11.17-4.7,11.39-13.51.08-3.42-4.67,1.47-4.99-1.82-.82-3.91,6.89.47,6.32-3.52-.48-6.17,6.41-12.86,2.45-18.56-1.48,1.08-11.64-.38-10.13,2.11,5.16,7.04,3.45,8.01-5.02,3.84-7.28-3.57.58-23.41,9.16-20.8,4.71,6.8-4.58,2.22-5.88,5.39-6.19,8.2,7.7,5.58,12.41,5.24Z"/></svg>