<?xml version="1.0" encoding="UTF-8" standalone="no"?>
<!-- Created with Inkscape (http://www.inkscape.org/) -->

<svg
   preserveAspectRatio="none"
   width="8"
   height="21"
   viewBox="0 0 2.1 5.5"
   version="1.1"
   id="svg5"
   inkscape:version="1.1.2 (0a00cf5339, 2022-02-04)"
   sodipodi:docname="closing-curly-brace.svg"
   xmlns:inkscape="http://www.inkscape.org/namespaces/inkscape"
   xmlns:sodipodi="http://sodipodi.sourceforge.net/DTD/sodipodi-0.dtd"
   xmlns="http://www.w3.org/2000/svg"
   xmlns:svg="http://www.w3.org/2000/svg">
  <sodipodi:namedview
     id="namedview7"
     pagecolor="#ffffff"
     bordercolor="#666666"
     borderopacity="1.0"
     inkscape:pageshadow="2"
     inkscape:pageopacity="0.0"
     inkscape:pagecheckerboard="0"
     inkscape:document-units="px"
     showgrid="false"
     inkscape:zoom="20.496745"
     inkscape:cx="4.0494235"
     inkscape:cy="10.928565"
     inkscape:window-width="1024"
     inkscape:window-height="1007"
     inkscape:window-x="896"
     inkscape:window-y="0"
     inkscape:window-maximized="0"
     inkscape:current-layer="layer1"
     units="px"
     viewbox-width="2.1"
     viewbox-height="5.5" />
  <defs
     id="defs2" />
  <g
     inkscape:label="Layer 1"
     inkscape:groupmode="layer"
     id="layer1"
     transform="translate(-40.702672,-51.339662)">
    <g
       id="SVGRepo_bgCarrier"
       stroke-width="0"
       transform="matrix(0.26458333,0,0,0.26458333,36.733922,50.545912)" />
    <g
       id="SVGRepo_tracerCarrier"
       stroke-linecap="round"
       stroke-linejoin="round"
       transform="matrix(0.26458333,0,0,0.26458333,36.733922,50.545912)" />
    <g
       id="SVGRepo_iconCarrier"
       transform="matrix(0.26458333,0,0,0.26458333,36.878965,50.801444)">
      <path
         d="M 20,18.297 V 15 c 0.0011,-1.104113 0.895887,-1.998898 2,-2 V 12 C 20.895887,11.9989 20.001102,11.104113 20,10 V 6.703 C 19.997795,4.6588034 18.341197,3.0022046 16.297,3 H 15 v 1 h 1.297 C 17.78914,4.00165 18.998347,5.2108597 19,6.703 V 10 c 2.92e-4,1.005772 0.504565,1.944478 1.343,2.5 C 19.504565,13.055522 19.000292,13.994228 19,15 v 3.297 C 18.9983,19.78914 17.78914,20.998347 16.297,21 H 15 v 1 h 1.297 C 18.341197,21.9978 19.997795,20.341197 20,18.297 Z"
         id="path11"
         sodipodi:nodetypes="cccccccccccccccccccc" />
      <path
         fill="none"
         d="M 0,0 H 24 V 24 H 0 Z"
         id="path13" />
    </g>
  </g>
</svg>
